<svg xmlns="http://www.w3.org/2000/svg" viewBox="0 0 229.56 229.52"><defs><style>.cls-1{fill:#1d1d1b;}</style></defs><title>ICO-Access-New-Data-&amp;amp;-Insights-black</title><g id="Layer_2" data-name="Layer 2"><g id="Layer_1-2" data-name="Layer 1"><g id="w7cYg0.tif"><path class="cls-1" d="M222.73,0c5,1.87,6.9,5.48,6.83,10.77-.18,13.22-.06,26.44-.06,39.66,0,6.65-3.43,10.11-10,10.11H178.93c-6.63,0-10-3.42-10-10.1,0-5.51,0-11,0-16.65h-36.7V74.52h10.27c8.28,0,12.42,4.13,12.45,12.36,0,3.05,0,6.11,0,9.6h3.84c3.13,0,6.27-.07,9.41,0a3.57,3.57,0,0,0,3.73-2,9.69,9.69,0,0,1,11.27-4.29,10.1,10.1,0,0,1,.06,19.39A9.84,9.84,0,0,1,171.69,105a2.89,2.89,0,0,0-3-1.64c-4.47.07-8.93,0-13.58,0v11.23h2.57q20.06,0,40.11,0c3.74,0,4.82,1.06,4.82,4.77v49.49h14.24c1.34,0,2.69,0,4,0a8.66,8.66,0,0,1,8.58,8.6q.12,21.74,0,43.46a8.45,8.45,0,0,1-8.43,8.48q-21.84.13-43.68,0a8.54,8.54,0,0,1-8.41-8.52c-.1-6.57-.05-13.14,0-19.71,0-2.41,1.43-3.92,3.43-3.89s3.34,1.54,3.36,4c0,6,0,11.95,0,17.92,0,2.94.47,3.46,3.3,3.46h40.33c2.79,0,3.32-.51,3.32-3.22q0-20.28,0-40.55c0-2.62-.57-3.18-3.13-3.18H179.22c-3,0-3.47.46-3.49,3.52,0,2.24,0,4.48,0,6.72-.06,2.41-1.43,3.86-3.48,3.8s-3.26-1.46-3.32-3.75c-.06-2.76-.07-5.53,0-8.29a8.68,8.68,0,0,1,8.84-8.8c5.89-.1,11.79,0,17.86,0V121.6H155.07c0,.8-.13,1.58-.13,2.36,0,6.28,0,12.55,0,18.82,0,7.92-4.26,12.11-12.22,12.15-3.42,0-6.84,0-10.47,0-.06.93-.15,1.64-.16,2.36,0,2.76.1,5.53,0,8.29-.13,2.49.19,4.29,2.74,5.82,3.72,2.23,4.82,7.17,3.3,11.36a10.11,10.11,0,0,1-19.24-.87,9.78,9.78,0,0,1,4.34-11.07,3.54,3.54,0,0,0,2-3.71c-.09-3.94,0-7.88,0-12H107.1c0,.89-.11,1.75-.11,2.61q0,19.16,0,38.31c0,4.61-.94,5.56-5.48,5.56H60.56v4.89c0,4.78.06,9.56,0,14.34A8.56,8.56,0,0,1,52,229.45q-21.74.13-43.46,0c-4.46,0-7-2.84-8.53-6.73v-47c1.66-4.17,4.44-6.78,9.2-6.78,14.05,0,28.09,0,42.13,0,5.6,0,9.17,3.66,9.21,9.32,0,4.71,0,9.41,0,14.12v2.23c1,0,1.65.11,2.32.11,11.57,0,23.15,0,34.72,0,2,0,2.54-.54,2.52-2.51-.09-11.65,0-23.31,0-35,0-.71-.1-1.43-.16-2.34-1.25,0-2.28,0-3.31,0-4.33-.07-8.67.06-13-.28a9.79,9.79,0,0,1-8.82-8.75c-.3-3-.2-6-.26-8.94,0-1.4,0-2.79,0-4.18-2.6-.5-4.37-.52-5.83,2.05-2.18,3.81-7,5.18-11.2,3.85a10,10,0,0,1-7.09-9.56,10.13,10.13,0,0,1,18.46-5.78c1.76,2.57,2.19,2.73,5.63,1.87,0-3.66-.13-7.38.05-11.09.11-2.23-.67-2.72-2.78-2.7-13.29.09-26.59,0-39.88,0-4,0-5-1-5-5V60.56c-5.44,0-10.65-.19-15.85,0-5.36.25-9.08-1.73-11-6.83V6.72A10.69,10.69,0,0,1,6.72,0H53.78c3.46,1.36,6.41,3.54,6.6,7.41.33,7.16.18,14.34.09,21.5A3.08,3.08,0,0,1,57.25,32a3.3,3.3,0,0,1-3.47-3.09,13.38,13.38,0,0,1-.05-1.79c0-5.76,0-11.51,0-17.26,0-2.48-.58-3.09-3-3.09q-20.51,0-41,0c-2.32,0-2.95.61-2.95,2.9,0,13.75,0,27.49,0,41.23,0,2,.86,2.84,2.84,2.83,13.74,0,27.49,0,41.23,0,2.27,0,2.86-.66,2.89-3s0-4.93,0-7.4c.07-2.25,1.44-3.67,3.4-3.66s3.31,1.42,3.38,3.69c.07,2.61,0,5.23,0,7.84-.06,5.71-3.69,9.31-9.45,9.35-5.08,0-10.16,0-15.24,0H33.79v43.8H74.52c0-1.22,0-2.25,0-3.29.07-5.74-.07-11.5.27-17.23a9.69,9.69,0,0,1,9-9c4.31-.33,8.66-.19,13-.26h3.29c0-3.91-.07-7.48,0-11a2.73,2.73,0,0,0-1.63-2.79,9.81,9.81,0,0,1-4.64-11.52,10.11,10.11,0,1,1,15,11.43c-.7.44-1.75,1.1-1.78,1.7-.15,4-.08,8-.08,12h18.16v-3q0-19.83,0-39.66c0-3.72,1.14-4.82,4.81-4.82q18.26,0,36.52,0h2.41c0-5.49.17-10.78,0-16S170.7,1.88,175.68,0ZM81.44,114.74q0,13.88,0,27.76c0,4.54,1,5.5,5.55,5.51q28,0,56,0c3.93,0,5-1.12,5-5.08q0-28,0-56c0-4.58-1-5.51-5.55-5.51H86.71c-4.24,0-5.27,1-5.27,5.31Q81.43,100.75,81.44,114.74ZM199,53.72c6.86,0,13.73,0,20.59,0,2.52,0,3.11-.54,3.12-3q0-20.47,0-41c0-2.42-.61-3-3.08-3q-20.47,0-41,0c-2.29,0-2.89.62-2.89,2.94q0,20.49,0,41c0,2.42.61,3,3.07,3C185.53,53.73,192.24,53.72,199,53.72Zm-168.67,122H9.92c-2.6,0-3.14.54-3.14,3.15q0,20.27,0,40.52c0,2.72.55,3.26,3.28,3.26q20.25,0,40.51,0c2.62,0,3.14-.53,3.14-3.15q0-20.27,0-40.52c0-2.72-.53-3.25-3.27-3.26C43.72,175.72,37,175.74,30.29,175.73Zm150-72.6a3.19,3.19,0,1,0-3.22-3.29A3.24,3.24,0,0,0,180.31,103.13ZM106.71,52a3.18,3.18,0,1,0-3.22,3.2A3.07,3.07,0,0,0,106.71,52ZM60.42,132.23a3,3,0,0,0,3.24-3,3.06,3.06,0,0,0-3.07-3.37,3.17,3.17,0,1,0-.17,6.33Zm68,50.19a3.17,3.17,0,1,0-3-3.4A3.05,3.05,0,0,0,128.44,182.42Z"/><path class="cls-1" d="M199.2,182.34c3.58,0,7.17,0,10.75,0,4,0,6.08,2,6.1,6.06q0,10.86,0,21.72c0,3.89-2.06,5.91-6,5.93q-10.86,0-21.72,0c-4,0-6-2.09-6-6.14q0-10.74,0-21.49c0-4,2-6,6.1-6,3.58,0,7.16,0,10.74,0Zm-9.93,26.74H209.1V189.29H189.27Z"/><path class="cls-1" d="M47.1,30.25c0,3.59,0,7.17,0,10.75,0,4-2,6.07-6.05,6.09q-10.76.06-21.49,0c-4.13,0-6.13-2.06-6.14-6.25q0-10.74,0-21.49c0-3.89,2.06-6,5.94-6,7.23,0,14.47,0,21.71,0,4,0,6,2.07,6.06,6.1,0,3.58,0,7.16,0,10.74ZM20.4,20.3V40.12H40.14V20.3Z"/><path class="cls-1" d="M95,95v39.35H134.4V94.88c-1.59,0-3.06.05-4.52,0-2.71-.12-4.12-1.32-4.15-3.41s1.42-3.41,4.08-3.46a56.66,56.66,0,0,1,7.14.21c2.53.27,3.94,1.82,4.34,4.36a15.46,15.46,0,0,1,.19,2.45q0,19.61,0,39.2c0,5.51-1.74,7.26-7.23,7.26q-19.71,0-39.42,0c-5,0-6.85-1.88-6.86-6.93q0-19.83,0-39.65c0-5,1.91-6.91,6.89-6.93q9.19,0,18.37,0a12.19,12.19,0,0,1,2,.18,3.31,3.31,0,0,1,.1,6.52,13.36,13.36,0,0,1-2.45.2c-5.15,0-10.3,0-15.45,0C96.7,94.91,96,95,95,95Z"/><path class="cls-1" d="M199,47.1c-3.58,0-7.16,0-10.74,0-3.81,0-5.86-2-5.88-5.79q-.08-11.08,0-22.16c0-3.64,2.09-5.7,5.74-5.72q11.08-.09,22.16,0c3.77,0,5.75,2.07,5.77,5.89q.06,11,0,21.94C216,45,214,47,210.19,47.09S202.72,47.1,199,47.1Zm10.16-26.71H189.33V40.15h19.82Z"/><path class="cls-1" d="M47.1,199.11c0,3.66,0,7.32,0,11,0,3.91-2.06,5.94-6,6q-10.86.06-21.71,0c-4,0-6-2-6-5.9q-.06-11,0-21.94c0-3.76,2.08-5.82,5.85-5.84q11-.08,21.94,0c3.89,0,5.86,2,5.89,6C47.13,192,47.1,195.53,47.1,199.11Zm-26.74-9.86v19.87H40.1V189.25Z"/></g></g></g></svg>