<svg xmlns="http://www.w3.org/2000/svg" xmlns:xlink="http://www.w3.org/1999/xlink" viewBox="0 0 358.22 227.71"><defs><style>.cls-1{isolation:isolate;}.cls-2{fill:#bcc0eb;mix-blend-mode:multiply;}.cls-3{fill:url(#_01);}.cls-4{fill:#fff;}.cls-5{fill:url(#çÓ_È_Ó·_ÁÂ_ËÂÌÚ_1);}.cls-6{fill:#d8f1f5;}.cls-7{fill:#6e6fda;}.cls-8{fill:#8ec2fe;}</style><linearGradient id="_01" x1="212.24" y1="149.07" x2="154.65" y2="149.07" gradientUnits="userSpaceOnUse"><stop offset="0" stop-color="#dbdffe"/><stop offset="1" stop-color="#f2f3fb"/></linearGradient><linearGradient id="çÓ_È_Ó·_ÁÂ_ËÂÌÚ_1" y1="103.41" x2="358.22" y2="103.41" gradientUnits="userSpaceOnUse"><stop offset="0" stop-color="#f7f8ff"/><stop offset="1" stop-color="#f2f3fb"/></linearGradient></defs><title>Our-Services_Configuration</title><g class="cls-1"><g id="Layer_2" data-name="Layer 2"><g id="Layer_1-2" data-name="Layer 1"><path class="cls-2" d="M358.2,124.3c-.28-4.31-3.55-8.8-9.68-12.33L200.31,26.48c-11.73-6.77-29.47-7.49-39.63-1.62L6.85,113.76C2,116.56-.24,120.36,0,124.3c.28,4.32,3.55,8.8,9.68,12.34l148.21,85.48c11.73,6.77,29.48,7.5,39.63,1.63l153.84-88.9C356.22,132,358.46,128.24,358.2,124.3Z"/><path class="cls-3" d="M358.2,121.1h0V106.4l-60.15,29.22L200.31,79.23c-11.73-6.76-29.47-7.49-39.63-1.62L60.23,135.66,0,106.4V120a9.91,9.91,0,0,0,0,1.09c.28,4.32,3.55,8.8,9.68,12.34l148.21,85.48a45.83,45.83,0,0,0,21.21,5.58h0c6.89.17,13.53-1.13,18.42-4l153.84-88.9C356.22,128.84,358.46,125,358.2,121.1Z"/><path class="cls-4" d="M358.2,106.4c-.28-4.32-3.55-8.8-9.68-12.33L200.31,8.58C188.58,1.81,170.84,1.08,160.68,7L6.85,95.85C2,98.66-.24,102.46,0,106.4c.28,4.31,3.55,8.8,9.68,12.33l148.21,85.49c11.73,6.77,29.48,7.49,39.63,1.62l153.84-88.9C356.22,114.14,358.46,110.34,358.2,106.4Z"/><path class="cls-5" d="M358.2,103.41c-.28-4.31-3.55-8.79-9.68-12.33L200.31,5.59C188.58-1.17,170.84-1.9,160.68,4L6.85,92.87C2,95.67-.24,99.47,0,103.41c.28,4.32,3.55,8.8,9.68,12.34l148.21,85.48c11.73,6.77,29.48,7.5,39.63,1.63L351.38,114C356.22,111.16,358.46,107.36,358.2,103.41Z"/><polygon class="cls-6" points="161.73 82.2 203.64 60.47 189.34 55.95 146.37 78.14 161.73 82.2"/><polygon class="cls-4" points="141.35 78.36 152.47 71.59 160.72 57.15 140.18 67.9 141.35 78.36"/><polygon class="cls-7" points="156.91 61.02 144.17 67.72 139.46 70.2 134.23 64.23 134.21 64.2 139.88 61.18 146.58 57.61 150.5 55.53 151.55 54.97 153.19 56.83 156.91 61.02"/><polygon class="cls-6" points="120.18 40.04 141.79 28.84 134.42 26.5 112.26 37.95 120.18 40.04"/><polygon class="cls-6" points="130.57 28.52 135.43 25.04 128.06 22.71 122.65 26.43 130.57 28.52"/><path class="cls-6" d="M139.41,48h0l-8.8,4.67-5.61,3-2.29-6,5.89-3.13,7.26-3.83a10,10,0,0,1,1.85,2A12.51,12.51,0,0,1,139.41,48Z"/><path class="cls-6" d="M143.41,56.13a12.55,12.55,0,0,0,3.17,1.48L124.45,69.44l-.5-3,19.43-10.3Z"/><path class="cls-7" d="M134.32,43.53l-1.47.77L129.55,46l-6.85,3.61-1.17-10.47,2.38-1.24h0l9.65-5a18.73,18.73,0,0,0,0,7.47A22.37,22.37,0,0,0,134.32,43.53Z"/><path class="cls-7" d="M143.41,56.13l-9.11,4.8h0l-3.79,2-6.18-7.07,4.9-2.56,5.95-3.11,1.76-.93c.34.54.69,1.07,1.06,1.58a22,22,0,0,0,3.08,3.48,16.82,16.82,0,0,0,2.31,1.78Z"/><path class="cls-7" d="M146.09,51.37l-8.49,5-2.43-6.16-2.32-5.9-1.42-2.91,8-3.89A25.84,25.84,0,0,1,146.09,51.37Z"/><path class="cls-8" d="M138.87,55.26c-1.9,2.33-5.47,1.38-8-2.14-.09-.13-.19-.27-.27-.41a11.75,11.75,0,0,1-2-6.18,6.07,6.07,0,0,1,1.12-4c1.47-1.8,3.94-1.64,6.14.16a10,10,0,0,1,1.85,2,12.51,12.51,0,0,1,1.7,3.36h0C140.33,50.79,140.19,53.62,138.87,55.26Z"/><polygon class="cls-4" points="154.04 70.1 164.34 63.83 161.55 58.94 150.7 65.45 154.04 70.1"/><polygon class="cls-6" points="147.99 40.37 156.48 35.18 159.52 31.86 150.47 37.29 147.99 40.37"/><polygon class="cls-6" points="155.18 49.43 163.31 44.34 159.72 42.97 151.04 48.29 155.18 49.43"/><polygon class="cls-6" points="149.32 75.93 159.06 69.85 164.34 63.77 154.04 70.1 149.32 75.93"/><path class="cls-6" d="M149.19,56.59l1.56,8.89L161.45,59a30.27,30.27,0,0,0,.22-4.3l-.56-5.18Z"/><path class="cls-4" d="M148,40.38,151,48.29,159.72,43a46.58,46.58,0,0,0-3.24-7.78Z"/><path class="cls-6" d="M135.74,27l5.8,4.49,8.72-5.36a34.08,34.08,0,0,0-5.18-4.77Z"/><polygon class="cls-4" points="150.47 37.29 159.52 31.86 153.71 22.72 144.1 28.38 150.47 37.29"/><polygon class="cls-4" points="156.36 59.87 164.45 54.75 163.31 44.34 155.19 49.4 156.36 59.87"/><polygon class="cls-4" points="135.71 27.03 145.18 21.35 144.59 15.87 135.09 21.51 135.71 27.03"/><polygon class="cls-4" points="122.64 26.43 135.09 19.4 131.85 14.52 119.31 21.77 122.64 26.43"/><path class="cls-8" d="M117.54,49.5a39.35,39.35,0,0,0,3.09,7.92l-2.52,3.1,6.39,8.88L127,66.3a26.17,26.17,0,0,0,5.84,4.5l.6,5.49,7.9,2.11-.6-5.5a10.34,10.34,0,0,0,5.18-1.54L149.29,76l4.77-5.9-3.36-4.67a20.74,20.74,0,0,0,1.49-6.69l4.14,1.1L155.19,49.4,151,48.29A38.87,38.87,0,0,0,148,40.38l2.51-3.1-6.39-8.89-2.51,3.1A25.84,25.84,0,0,0,135.74,27l-.6-5.5-7.9-2.1.6,5.49a10.38,10.38,0,0,0-5.18,1.55l-3.36-4.67-4.77,5.9,3.36,4.68A20.74,20.74,0,0,0,116.4,39l-4.14-1.11,1.14,10.46Zm7.13-14c4-4.91,11.5-2.9,16.81,4.49s6.41,17.37,2.44,22.29-11.5,2.9-16.82-4.5S120.7,40.42,124.67,35.51Z"/><polygon class="cls-6" points="135.16 21.49 144.59 15.87 137.21 13.54 127.24 19.39 135.16 21.49"/><polygon class="cls-4" points="202.77 156.51 224.34 143.38 240.33 115.37 200.51 136.22 202.77 156.51"/><polygon class="cls-7" points="232.94 122.89 208.24 135.88 199.11 140.69 188.98 129.11 188.92 129.05 199.93 123.2 212.92 116.28 220.53 112.23 222.55 111.15 225.75 114.76 232.94 122.89"/><polygon class="cls-6" points="181.88 59.86 191.3 53.11 177 48.59 166.51 55.8 181.88 59.86"/><path class="cls-6" d="M199,97.68v0L182,106.77l-10.88,5.79-4.44-11.71L178,94.79l14.1-7.44a19.49,19.49,0,0,1,3.58,3.83A24,24,0,0,1,199,97.68Z"/><path class="cls-6" d="M206.78,113.4a24.63,24.63,0,0,0,6.14,2.88L170,139.21l-.95-5.87,37.65-20Z"/><path class="cls-7" d="M189.14,89l-2.84,1.5-6.41,3.38-13.28,7-2.26-20.29L169,78.13h0l18.72-9.8a36.2,36.2,0,0,0-.08,14.47A45.23,45.23,0,0,0,189.14,89Z"/><path class="cls-7" d="M206.78,113.4l-17.68,9.31h0l-7.36,3.88-12-13.69,9.51-5,11.54-6,3.42-1.8c.65,1,1.32,2.08,2,3.07a42.2,42.2,0,0,0,6,6.74,32,32,0,0,0,4.46,3.45Z"/><path class="cls-7" d="M212,104.17l-16.48,9.67-4.7-12-4.5-11.43-2.76-5.64L199,77.28C208.12,86.32,211.44,99.38,212,104.17Z"/><path class="cls-8" d="M198,111.71c-3.67,4.51-10.59,2.67-15.49-4.14a9.17,9.17,0,0,1-.52-.8,23,23,0,0,1-3.91-12A11.86,11.86,0,0,1,180.23,87c2.84-3.48,7.63-3.18,11.91.31a19.49,19.49,0,0,1,3.58,3.83,24,24,0,0,1,3.3,6.5v0C200.79,103.05,200.52,108.53,198,111.71Z"/><polygon class="cls-4" points="227.39 140.5 247.36 128.33 241.95 118.84 220.91 131.47 227.39 140.5"/><polygon class="cls-6" points="215.64 82.84 232.12 72.77 238.01 66.33 220.47 76.86 215.64 82.84"/><polygon class="cls-6" points="229.6 100.4 245.37 90.53 238.41 87.88 221.57 98.2 229.6 100.4"/><polygon class="cls-6" points="218.23 151.8 237.12 140 247.35 128.22 227.39 140.48 218.23 151.8"/><path class="cls-6" d="M218,114.29l3,17.25L241.76,119a61.31,61.31,0,0,0,.42-8.33l-1.09-10Z"/><path class="cls-4" d="M215.6,82.86l6,15.33L238.4,87.85a91.15,91.15,0,0,0-6.28-15.08Z"/><path class="cls-6" d="M191.89,56.91l11.26,8.7,16.91-10.38A66.19,66.19,0,0,0,210,46Z"/><polygon class="cls-4" points="220.46 76.86 238.01 66.33 226.74 48.61 208.12 59.6 220.46 76.86"/><polygon class="cls-4" points="231.87 120.65 247.57 110.73 245.37 90.53 229.62 100.35 231.87 120.65"/><polygon class="cls-4" points="191.85 56.98 210.21 45.95 209.05 35.33 190.64 46.27 191.85 56.98"/><polygon class="cls-4" points="166.5 55.81 190.64 42.17 184.35 32.7 160.03 46.78 166.5 55.81"/><path class="cls-8" d="M156.61,100.54a77,77,0,0,0,6,15.35l-4.87,6,12.39,17.23,4.87-6a50.07,50.07,0,0,0,11.32,8.72l1.16,10.66,15.31,4.08-1.16-10.65a20.09,20.09,0,0,0,10-3l6.52,9.05,9.25-11.44-6.51-9.06a40.45,40.45,0,0,0,2.88-13l8,2.15-2.21-20.28-8.05-2.16a75.93,75.93,0,0,0-6-15.34l4.87-6L208.08,59.61l-4.87,6a50.08,50.08,0,0,0-11.32-8.71l-1.17-10.65-15.31-4.09,1.17,10.66a19.91,19.91,0,0,0-10,3l-6.52-9-9.24,11.44,6.5,9.06a40.45,40.45,0,0,0-2.88,13l-8-2.15,2.21,20.29Zm13.82-27.13c7.7-9.52,22.3-5.62,32.6,8.71s12.42,33.69,4.72,43.22-22.29,5.62-32.6-8.72S162.73,82.94,170.43,73.41Z"/><polygon class="cls-6" points="175.42 42.16 190.78 46.23 209.05 35.33 194.75 30.81 175.42 42.16"/></g></g></g></svg>