<svg xmlns="http://www.w3.org/2000/svg" xmlns:xlink="http://www.w3.org/1999/xlink" viewBox="0 0 358.22 232.37"><defs><style>.cls-1{isolation:isolate;}.cls-2{fill:#bcc0eb;mix-blend-mode:multiply;}.cls-3{fill:url(#_01);}.cls-4{fill:#fff;}.cls-5{fill:url(#çÓ_È_Ó·_ÁÂ_ËÂÌÚ_1);}.cls-6{fill:#aeaeae;}.cls-7{fill:url(#new);}.cls-8{fill:url(#new-2);}.cls-9{fill:url(#new-3);}.cls-10{fill:#6980ff;}.cls-11{fill:url(#new-4);}.cls-12{fill:url(#new-5);}</style><linearGradient id="_01" x1="212.24" y1="153.73" x2="154.65" y2="153.73" gradientUnits="userSpaceOnUse"><stop offset="0" stop-color="#dbdffe"/><stop offset="1" stop-color="#f2f3fb"/></linearGradient><linearGradient id="çÓ_È_Ó·_ÁÂ_ËÂÌÚ_1" y1="108.07" x2="358.22" y2="108.07" gradientUnits="userSpaceOnUse"><stop offset="0" stop-color="#f7f8ff"/><stop offset="1" stop-color="#f2f3fb"/></linearGradient><linearGradient id="new" x1="119.85" y1="40.99" x2="233.53" y2="40.99" gradientUnits="userSpaceOnUse"><stop offset="0" stop-color="#ff486c"/><stop offset="1" stop-color="#ffa55e"/></linearGradient><linearGradient id="new-2" x1="206.26" y1="93.44" x2="226.62" y2="93.44" xlink:href="#new"/><linearGradient id="new-3" x1="206.26" y1="122.83" x2="226.62" y2="122.83" xlink:href="#new"/><linearGradient id="new-4" x1="153.63" y1="63.95" x2="173.99" y2="63.95" xlink:href="#new"/><linearGradient id="new-5" x1="153.63" y1="93.34" x2="173.99" y2="93.34" xlink:href="#new"/></defs><title>Our-Services_Design</title><g class="cls-1"><g id="Layer_2" data-name="Layer 2"><g id="Layer_1-2" data-name="Layer 1"><path class="cls-2" d="M358.2,129c-.28-4.31-3.55-8.8-9.68-12.33L200.31,31.14c-11.73-6.77-29.47-7.5-39.63-1.63L6.85,118.41C2,121.22-.24,125,0,129c.28,4.31,3.55,8.8,9.68,12.33l148.21,85.49c11.73,6.77,29.48,7.49,39.63,1.63L351.38,139.5C356.22,136.7,358.46,132.9,358.2,129Z"/><path class="cls-3" d="M358.2,125.76h0V111.06l-60.15,29.22L200.31,83.89c-11.73-6.77-29.47-7.49-39.63-1.63L60.23,140.31,0,111.06v13.6a9.91,9.91,0,0,0,0,1.09c.28,4.31,3.55,8.8,9.68,12.33l148.21,85.49a45.7,45.7,0,0,0,21.21,5.57h0c6.89.17,13.53-1.12,18.42-3.94l153.84-88.91C356.22,133.49,358.46,129.7,358.2,125.76Z"/><path class="cls-4" d="M358.2,111.06c-.28-4.32-3.55-8.8-9.68-12.34L200.31,13.23c-11.73-6.76-29.47-7.49-39.63-1.62L6.85,100.51C2,103.31-.24,107.11,0,111.06c.28,4.31,3.55,8.79,9.68,12.33l148.21,85.49c11.73,6.76,29.48,7.49,39.63,1.62l153.84-88.9C356.22,118.8,358.46,115,358.2,111.06Z"/><path class="cls-5" d="M358.2,108.07c-.28-4.31-3.55-8.8-9.68-12.33L200.31,10.25c-11.73-6.77-29.47-7.5-39.63-1.63L6.85,97.53C2,100.33-.24,104.13,0,108.07c.28,4.31,3.55,8.8,9.68,12.33l148.21,85.49c11.73,6.77,29.48,7.5,39.63,1.63l153.84-88.91C356.22,115.81,358.46,112,358.2,108.07Z"/><path class="cls-6" d="M234.37,62.33,128.69.61c-1.3-.76-2.45-.79-3.19-.22h0L121,3.08s.65,1.88.65,2l2.25,1.7.78-.4V84.93a8.48,8.48,0,0,0,4,6.43l104.05,60.76-1,2.93.81,1.29,4.86-2.92h0a2.28,2.28,0,0,0,1-2.09V68.75A8.45,8.45,0,0,0,234.37,62.33Z"/><path class="cls-7" d="M233.53,71.66a8.45,8.45,0,0,0-4-6.42L123.85,3.52c-2.2-1.28-4-.49-4,1.76V12.7L233.53,79.08Z"/><path class="cls-4" d="M119.85,12.7V87.84a8.45,8.45,0,0,0,4,6.42L229.53,156c2.2,1.28,4,.49,4-1.76V79.08Z"/><path class="cls-4" d="M217.07,63.16c0,.87-.7,1.17-1.56.66A3.25,3.25,0,0,1,214,61.34c0-.87.69-1.17,1.55-.67A3.3,3.3,0,0,1,217.07,63.16Z"/><path class="cls-4" d="M222.38,66.26c0,.87-.69,1.17-1.55.67a3.3,3.3,0,0,1-1.56-2.49c0-.87.7-1.16,1.56-.66A3.25,3.25,0,0,1,222.38,66.26Z"/><path class="cls-4" d="M227.7,69.36c0,.87-.7,1.17-1.56.67a3.28,3.28,0,0,1-1.56-2.49c0-.86.7-1.16,1.56-.66A3.26,3.26,0,0,1,227.7,69.36Z"/><path class="cls-8" d="M209.87,99.9,223,107.57c2,1.16,3.62.47,3.62-1.55V92.74A7.6,7.6,0,0,0,223,87l-13.13-7.66c-2-1.17-3.61-.48-3.61,1.54V94.13A7.62,7.62,0,0,0,209.87,99.9Z"/><path class="cls-9" d="M209.87,129.29,223,137c2,1.16,3.62.47,3.62-1.55V122.13a7.57,7.57,0,0,0-3.62-5.76l-13.13-7.67c-2-1.17-3.61-.48-3.61,1.54v13.28A7.62,7.62,0,0,0,209.87,129.29Z"/><path class="cls-10" d="M179.61,66.68,199.49,78.3c.87.5,1.57.2,1.57-.67h0a3.28,3.28,0,0,0-1.57-2.5L179.61,63.52c-.86-.5-1.56-.2-1.56.67h0A3.28,3.28,0,0,0,179.61,66.68Z"/><path class="cls-10" d="M179.61,72.07l19.88,11.61c.87.5,1.57.2,1.57-.67h0a3.28,3.28,0,0,0-1.57-2.5L179.61,68.9c-.86-.5-1.56-.2-1.56.67h0A3.31,3.31,0,0,0,179.61,72.07Z"/><path class="cls-10" d="M179.61,77.45l19.88,11.61c.87.5,1.57.2,1.57-.67h0a3.28,3.28,0,0,0-1.57-2.5L179.61,74.28c-.86-.5-1.56-.2-1.56.67h0A3.31,3.31,0,0,0,179.61,77.45Z"/><path class="cls-10" d="M186,86.58l13.45,7.86c.87.5,1.57.2,1.57-.67h0a3.28,3.28,0,0,0-1.57-2.5L186,83.42c-.87-.51-1.57-.21-1.57.66h0A3.28,3.28,0,0,0,186,86.58Z"/><path class="cls-10" d="M179.73,94.83l19.88,11.61c.86.51,1.56.21,1.56-.67h0a3.28,3.28,0,0,0-1.56-2.49L179.73,91.67c-.87-.51-1.57-.21-1.57.67h0A3.27,3.27,0,0,0,179.73,94.83Z"/><path class="cls-10" d="M179.73,100.21l19.88,11.61c.86.51,1.56.21,1.56-.67h0a3.28,3.28,0,0,0-1.56-2.49L179.73,97.05c-.87-.51-1.57-.21-1.57.67h0A3.27,3.27,0,0,0,179.73,100.21Z"/><path class="cls-10" d="M179.73,105.59l19.88,11.61c.86.51,1.56.21,1.56-.67h0a3.28,3.28,0,0,0-1.56-2.49l-19.88-11.61c-.87-.51-1.57-.21-1.57.67h0A3.27,3.27,0,0,0,179.73,105.59Z"/><path class="cls-10" d="M186.15,114.72l13.46,7.86c.86.51,1.56.21,1.56-.67h0a3.28,3.28,0,0,0-1.56-2.49l-13.46-7.86c-.86-.5-1.56-.2-1.56.67h0A3.28,3.28,0,0,0,186.15,114.72Z"/><path class="cls-11" d="M157.25,70.41l13.13,7.66c2,1.17,3.61.48,3.61-1.54V63.25a7.62,7.62,0,0,0-3.61-5.77l-13.13-7.66c-2-1.17-3.62-.48-3.62,1.54V64.64A7.6,7.6,0,0,0,157.25,70.41Z"/><path class="cls-12" d="M157.25,99.8l13.13,7.67c2,1.16,3.61.47,3.61-1.55V92.64a7.62,7.62,0,0,0-3.61-5.77l-13.13-7.66c-2-1.17-3.62-.48-3.62,1.54V94A7.6,7.6,0,0,0,157.25,99.8Z"/><path class="cls-10" d="M127,37.19l19.88,11.62c.86.5,1.56.2,1.56-.67h0a3.3,3.3,0,0,0-1.56-2.5L127,34c-.87-.5-1.57-.2-1.57.67h0A3.27,3.27,0,0,0,127,37.19Z"/><path class="cls-10" d="M127,42.57l19.88,11.62c.86.5,1.56.2,1.56-.67h0a3.3,3.3,0,0,0-1.56-2.5L127,39.41c-.87-.5-1.57-.2-1.57.67h0A3.27,3.27,0,0,0,127,42.57Z"/><path class="cls-10" d="M127,48l19.88,11.62c.86.5,1.56.2,1.56-.67h0a3.3,3.3,0,0,0-1.56-2.5L127,44.79c-.87-.5-1.57-.2-1.57.67h0A3.27,3.27,0,0,0,127,48Z"/><path class="cls-10" d="M133.41,57.09,146.87,65c.86.5,1.56.2,1.56-.67h0a3.3,3.3,0,0,0-1.56-2.5l-13.46-7.85c-.86-.51-1.56-.21-1.56.66h0A3.3,3.3,0,0,0,133.41,57.09Z"/><path class="cls-10" d="M127.1,65.34,147,77c.86.51,1.56.21,1.56-.67h0A3.28,3.28,0,0,0,147,73.79L127.1,62.18c-.86-.51-1.56-.21-1.56.67h0A3.28,3.28,0,0,0,127.1,65.34Z"/><path class="cls-10" d="M127.1,70.72,147,82.33c.86.51,1.56.21,1.56-.67h0A3.28,3.28,0,0,0,147,79.17L127.1,67.56c-.86-.51-1.56-.21-1.56.67h0A3.28,3.28,0,0,0,127.1,70.72Z"/><path class="cls-10" d="M127.1,76.1,147,87.71c.86.51,1.56.21,1.56-.67h0A3.28,3.28,0,0,0,147,84.55L127.1,72.94c-.86-.51-1.56-.21-1.56.67h0A3.28,3.28,0,0,0,127.1,76.1Z"/><path class="cls-10" d="M133.53,85.23,147,93.09c.86.51,1.56.21,1.56-.67h0A3.28,3.28,0,0,0,147,89.93l-13.46-7.86c-.86-.5-1.56-.2-1.56.67h0A3.28,3.28,0,0,0,133.53,85.23Z"/></g></g></g></svg>