<svg xmlns="http://www.w3.org/2000/svg" viewBox="0 0 217.89 244.69"><defs><style>.cls-1{fill:#1d1d1b;}</style></defs><title>ICO-New-Digital-Markets-black</title><g id="Layer_2" data-name="Layer 2"><g id="Layer_1-2" data-name="Layer 1"><g id="nvk4g6.tif"><path class="cls-1" d="M106.55,244.69c-4.55-.94-8.86-2.41-12.39-5.64-6.33-5.81-8.85-13-7.12-21.34,1.68-8.11,6.6-13.93,14.58-16.54,14.73-4.82,28.78,4.91,29.75,20.36.65,10.56-7.47,20.68-18.24,22.75a10.58,10.58,0,0,0-1.32.41Zm2.42-8A14.45,14.45,0,1,0,94.5,222.16,14.4,14.4,0,0,0,109,236.72Z"/><path class="cls-1" d="M111.33,0c4.55,1,8.78,2.5,12.4,5.63,6.26,5.39,9.2,14.78,6.77,22.72-2.8,9.14-8.9,14.66-18.37,16.18-16.41,2.64-30.35-13.62-24-30.2C91,6.67,96.85,2,105,.41,105.49.3,106,.14,106.55,0Zm12,22.55a14.44,14.44,0,1,0-28.88-.22,14.44,14.44,0,0,0,28.88.22Z"/><path class="cls-1" d="M153.39,122.32A44.45,44.45,0,1,1,109,77.9,44.65,44.65,0,0,1,153.39,122.32Zm-19.17,26c8.91-7.15,14.13-23.24,9.28-37.57A36.9,36.9,0,0,0,106.14,86c-15.21,1-28.7,12.27-32.65,28.06-3.49,14,2.69,28.7,10.74,34.53.17-.27.35-.52.5-.79,3.19-6,8.17-9.2,15-9.33,6.13-.12,12.28-.31,18.38.09a19.88,19.88,0,0,1,9,2.65C129.81,142.9,131.83,145.83,134.22,148.27Zm-25.19-2h-9.3a9.13,9.13,0,0,0-8.28,5.79c-.47,1.29-.37,2.1,1.1,2.81,11,5.24,21.87,5.15,32.82,0,1.48-.7,1.52-1.54,1-2.82a9,9,0,0,0-8.31-5.74C115.07,146.23,112.05,146.29,109,146.29Z"/><path class="cls-1" d="M195.52,94.82c-12.58.06-22.47-10-22.48-22.89,0-11.78,10.17-21.84,22.24-22,12.52-.14,22.52,9.94,22.6,22.79C218,84.63,207.68,94.77,195.52,94.82ZM181,72.46a14.44,14.44,0,1,0,14.25-14.6A14.42,14.42,0,0,0,181,72.46Z"/><path class="cls-1" d="M195.4,149.87c12-.09,22.34,9.92,22.48,21.72a22.44,22.44,0,0,1-22.24,23.14c-12,.19-22.54-10-22.6-21.84C173,160,182.76,150,195.4,149.87ZM181,172.27a14.44,14.44,0,1,0,14.57-14.51A14.48,14.48,0,0,0,181,172.27Z"/><path class="cls-1" d="M22.43,94.82c-12,0-22.33-10-22.43-21.76C-.11,60.2,9.63,50.11,22.29,50c12-.15,22.56,10.07,22.55,21.89C44.84,84.76,35.07,94.78,22.43,94.82ZM36.85,72.6a14.43,14.43,0,1,0-14.5,14.34A14.49,14.49,0,0,0,36.85,72.6Z"/><path class="cls-1" d="M22.51,194.73c-12.59,0-22.44-10-22.5-22.88,0-11.84,10.38-22,22.45-22,12.64.07,22.39,10.08,22.38,23C44.84,184.57,34.5,194.69,22.51,194.73Zm14.34-22.6a14.43,14.43,0,1,0-14.15,14.7A14.43,14.43,0,0,0,36.85,172.13Z"/><path class="cls-1" d="M168.65,83.28l4,6.86c-6,3.5-12,6.94-18.23,10.55l-4-6.85Z"/><path class="cls-1" d="M45.23,90.16l4-6.86L67.45,93.81l-4,6.87Z"/><path class="cls-1" d="M63.51,144c1.41,2.43,2.63,4.56,4,6.86L49.22,161.41l-4-6.86Z"/><path class="cls-1" d="M150.41,150.86c1.37-2.38,2.6-4.5,4-6.85l18.24,10.5-4,6.88Z"/><path class="cls-1" d="M112.76,51.29V72.05h-7.57V51.29Z"/><path class="cls-1" d="M112.69,193.46h-7.56V172.63h7.56Z"/><path class="cls-1" d="M7.43,100.36,15.1,102l-1.31,8-7.84-1Z"/><path class="cls-1" d="M202.76,102l7.69-1.69c.5,2.86,1,5.61,1.52,8.72l-7.83,1.08C203.67,107.36,203.23,104.77,202.76,102Z"/><path class="cls-1" d="M15.13,142.68l-7.71,1.67-1.49-8.74,7.83-1Z"/><path class="cls-1" d="M204.11,134.58l7.8,1c-.48,3-.93,5.7-1.42,8.71l-7.71-1.64C203.22,140,203.64,137.44,204.11,134.58Z"/><path class="cls-1" d="M79.65,31,72,33.8l-3-7.27,8.32-3.12Z"/><path class="cls-1" d="M173.44,51.29l-6.28-5.22,4.74-6.34,6.85,5.68C177,47.38,175.29,49.24,173.44,51.29Z"/><path class="cls-1" d="M45.94,39.75,50.75,46c-2.08,1.73-4.07,3.39-6.27,5.24L39.1,45.45Z"/><path class="cls-1" d="M164.69,34.67l-4.24,6.66-7.14-4.08,3.67-7Z"/><path class="cls-1" d="M44.45,193.4l6.28,5.22L46,205l-6.84-5.68Z"/><path class="cls-1" d="M167.12,198.62c2.27-1.86,4.22-3.47,6.32-5.21,1.79,2,3.48,3.81,5.32,5.84l-6.82,5.68Z"/><path class="cls-1" d="M145.91,33.79,138.25,31c.79-2.51,1.55-4.89,2.38-7.52l8.35,3Z"/><path class="cls-1" d="M157,214.46l-3.67-7,7.12-4.15c1.37,2.18,2.71,4.3,4.23,6.69Z"/><path class="cls-1" d="M79.67,213.73l-2.44,7.53-8.29-3.06c1-2.41,1.94-4.7,3-7.29Z"/><path class="cls-1" d="M53.18,34.67l7.65-4.42,3.73,7-7.11,4.18Z"/><path class="cls-1" d="M57.45,203.34l7.1,4.11c-1.18,2.28-2.33,4.5-3.63,7L53.19,210Z"/><path class="cls-1" d="M149,218.16l-8.34,3.12c-.81-2.56-1.57-4.95-2.4-7.55l7.68-2.85Z"/><path class="cls-1" d="M5.32,118.23h7.56v8.23H5.32Z"/><path class="cls-1" d="M212.6,118.36v8.06c-.29.12-.43.24-.56.24-9.16-.37-6.9,1.62-7.08-8.3Z"/><path class="cls-1" d="M91.66,115.06a17.29,17.29,0,1,1,17.17,17.39A17.23,17.23,0,0,1,91.66,115.06Zm26.68.18a9.42,9.42,0,1,0-9.55,9.32A9.53,9.53,0,0,0,118.34,115.24Z"/></g></g></g></svg>