<svg xmlns="http://www.w3.org/2000/svg" xmlns:xlink="http://www.w3.org/1999/xlink" viewBox="0 0 358.22 227.71"><defs><style>.cls-1{isolation:isolate;}.cls-2{fill:#bcc0eb;mix-blend-mode:multiply;}.cls-3{fill:url(#_01);}.cls-4{fill:#fff;}.cls-5{fill:url(#çÓ_È_Ó·_ÁÂ_ËÂÌÚ_1);}.cls-6{fill:#8591ff;}.cls-6,.cls-7,.cls-8,.cls-9{fill-rule:evenodd;}.cls-7{fill:#5263ff;}.cls-8{fill:url(#new_9);}.cls-9{fill:#100088;}</style><linearGradient id="_01" x1="212.24" y1="149.07" x2="154.65" y2="149.07" gradientUnits="userSpaceOnUse"><stop offset="0" stop-color="#dbdffe"/><stop offset="1" stop-color="#f2f3fb"/></linearGradient><linearGradient id="çÓ_È_Ó·_ÁÂ_ËÂÌÚ_1" y1="103.41" x2="358.22" y2="103.41" gradientUnits="userSpaceOnUse"><stop offset="0" stop-color="#f7f8ff"/><stop offset="1" stop-color="#f2f3fb"/></linearGradient><linearGradient id="new_9" x1="-217.94" y1="74.2" x2="-87.5" y2="74.2" gradientTransform="matrix(-1, 0, 0, 1, 53.74, 0)" gradientUnits="userSpaceOnUse"><stop offset="0" stop-color="#fd486c"/><stop offset="1" stop-color="#fda35e"/></linearGradient></defs><title>Our-Services_Engagement</title><g class="cls-1"><g id="Layer_2" data-name="Layer 2"><g id="Layer_1-2" data-name="Layer 1"><path class="cls-2" d="M358.2,124.3c-.28-4.31-3.55-8.8-9.68-12.33L200.31,26.48c-11.73-6.77-29.47-7.49-39.63-1.62L6.85,113.76C2,116.56-.24,120.36,0,124.3c.28,4.32,3.55,8.8,9.68,12.34l148.21,85.48c11.73,6.77,29.48,7.5,39.63,1.63l153.84-88.9C356.22,132,358.46,128.24,358.2,124.3Z"/><path class="cls-3" d="M358.2,121.1h0V106.4l-60.15,29.22L200.31,79.23c-11.73-6.76-29.47-7.49-39.63-1.62L60.23,135.66,0,106.4V120a9.91,9.91,0,0,0,0,1.09c.28,4.32,3.55,8.8,9.68,12.34l148.21,85.48a45.83,45.83,0,0,0,21.21,5.58h0c6.89.17,13.53-1.13,18.42-4l153.84-88.9C356.22,128.84,358.46,125,358.2,121.1Z"/><path class="cls-4" d="M358.2,106.4c-.28-4.32-3.55-8.8-9.68-12.33L200.31,8.58C188.58,1.81,170.84,1.08,160.68,7L6.85,95.85C2,98.66-.24,102.46,0,106.4c.28,4.31,3.55,8.8,9.68,12.33l148.21,85.49c11.73,6.77,29.48,7.49,39.63,1.62l153.84-88.9C356.22,114.14,358.46,110.34,358.2,106.4Z"/><path class="cls-5" d="M358.2,103.41c-.28-4.31-3.55-8.79-9.68-12.33L200.31,5.59C188.58-1.17,170.84-1.9,160.68,4L6.85,92.87C2,95.67-.24,99.47,0,103.41c.28,4.32,3.55,8.8,9.68,12.34l148.21,85.48c11.73,6.77,29.48,7.5,39.63,1.63L351.38,114C356.22,111.16,358.46,107.36,358.2,103.41Z"/><path class="cls-6" d="M117.55,80.21,107,62l13.42-43.45s17.38-16.64,21.71,13.55,16-5.25,16-5.25l20,20.24,14.62,21.63,18.39,6,41,37.29v30.76l-5,15.13-18.07-10.74Z"/><path class="cls-7" d="M229.15,147.22a205.7,205.7,0,0,0-8.41-20.86,18.52,18.52,0,0,0-5.52-7.48q-1.65-1.32-3,1.14-2.67,4.53-5.43,9a6,6,0,0,1-2.67,2.46q-1.74.84-5.33-10.13T193,111.41q-2.21.95-3.5,5.2c-.85,2.71-1.68,4-2.48,3.88s-1.87-2.15-3.22-6.06S181,106,179.36,101a56.56,56.56,0,0,0-4.6-11.55q-2.3-4.07-4.87.1T165,98.06c-1.53,2.91-3,4.1-4.32,3.6s-2.54-2.68-3.58-6.34l-4-14.76a102.61,102.61,0,0,0-6.71-18.27q-4.14-8.24-11.77-8.8h-.28q-2,0-5.6-2.65-2.53-1.91-5.52-9.89-1.17-3-2.39-7-4.08-13.21-9.2,5.82c-.27,1-.54,2.1-.82,3.26A190.43,190.43,0,0,0,107,62q-1.65-.85-4.87,1.14a39.38,39.38,0,0,0-4.87,3.26,45.54,45.54,0,0,0-3.77,3.26,54.5,54.5,0,0,0-4.6,5V76.2l145.28,86.59-.09-.38q-1.74-5.4-3.4-10.6Q229.94,149.5,229.15,147.22Z"/><path class="cls-8" d="M239,124.32l32.64,18.88v-1.61c-.43-1.2-.8-2.3-1.1-3.31a47.09,47.09,0,0,0-4-7.76,4.45,4.45,0,0,0-3.59-2.37,12.17,12.17,0,0,1-1.83.1,5.48,5.48,0,0,1-1.84-.57,5,5,0,0,1-2.58-2.36c-.18-.38-.7-1.61-1.56-3.7-.61-1.45-1.63-4.63-3-9.55q-2.22-8.14-5.71-19.5t-6.62-11.44a5.33,5.33,0,0,0-4.78,2.17c-1.1,1.51-2.11,2.81-3,3.88a5.21,5.21,0,0,1-2.76,1.89,4.39,4.39,0,0,1-2.76-.56,3.9,3.9,0,0,1-1.75-1.9c-.24-.75-.7-2-1.38-3.88s-1.41-4.47-2.39-8-2-5.48-3.21-5.67-2.21.41-3.31,2a21.15,21.15,0,0,1-3.32,3.69q-1.65,1.34-3-2.46t-5.52-16.18q-4.2-12.28-5.24-14.85T191.22,32a30,30,0,0,0-2.39-2.79c-2.46-2.43-4.68-3.37-6.67-2.79h0c-2.6.76-4.39,1.81-5.38,3.17A38.15,38.15,0,0,1,172.83,34c-1.61,1.59-3.18,1.25-4.74-1s-2.86-6.49-4-12.63-2.46-10-4.09-11.69a11.91,11.91,0,0,0-5.61-3.27c-2.13-.53-3.95.22-5.47,2.28s-2.87,6-4.09,11.87q-.47,2.18-1.38,6.72c-.55,2.59-1,4.54-1.38,5.87-.29,1.12-.58,2.1-.87,2.93a59,59,0,0,0,4.18,8.52,12.05,12.05,0,0,1,2,4.35q4.73-9.51,11.22-6a13.66,13.66,0,0,1,6,9.08q1.65,7.49,2.66,11.93c.74,2.9,1,4.16.83,3.78s.71,2.27,2.67,8,5.49,5.36,10.39-.76,8.82-7.85,11.58-5.2A24.14,24.14,0,0,1,199,79.23a109.3,109.3,0,0,0,6.43,15.52q4.51,9,6.81,3.79a20.06,20.06,0,0,1,6.25-8.05c2.64-1.89,5-1.26,7.08,1.89a78,78,0,0,1,8.27,15.43A165.55,165.55,0,0,1,239,124.32Z"/><path class="cls-9" d="M271.68,141.59v1.61L239,124.32c.28,1,.55,2,.82,3.08q3.22,12.1,7.36,30.56l-18.07-10.74q.78,2.28,1.52,4.59,1.65,5.2,3.4,10.6l.09.38L88.88,76.2V74.69a54.5,54.5,0,0,1,4.6-5L82.72,76l151.54,90,39.35-23.28Z"/></g></g></g></svg>