<svg xmlns="http://www.w3.org/2000/svg" xmlns:xlink="http://www.w3.org/1999/xlink" viewBox="0 0 358.22 262.12"><defs><style>.cls-1{mask:url(#mask);filter:url(#luminosity-noclip-3);}.cls-11,.cls-2,.cls-4,.cls-6{mix-blend-mode:multiply;}.cls-2{fill:url(#ÅÂÁ_Ï_ÌÌ_È_ËÂÌÚ_2);}.cls-3{mask:url(#mask-2);filter:url(#luminosity-noclip-4);}.cls-4{fill:url(#ÅÂÁ_Ï_ÌÌ_È_ËÂÌÚ_2-2);}.cls-5{isolation:isolate;}.cls-6{fill:#bcc0eb;}.cls-7{fill:url(#_01);}.cls-8{fill:#fff;}.cls-9{fill:url(#çÓ_È_Ó·_ÁÂ_ËÂÌÚ_1);}.cls-10{mask:url(#mask-3);}.cls-11{fill:url(#ÅÂÁ_Ï_ÌÌ_È_ËÂÌÚ_10);}.cls-12{fill:#e6e8f7;}.cls-13{fill:#dbdffe;}.cls-14{fill:url(#ÅÂÁ_Ï_ÌÌ_È_ËÂÌÚ_15);}.cls-15{fill:url(#ÅÂÁ_Ï_ÌÌ_È_ËÂÌÚ_6);}.cls-16{fill:#06008c;}.cls-17{fill:url(#ÅÂÁ_Ï_ÌÌ_È_ËÂÌÚ_111);}.cls-18{fill:#ff486c;}.cls-19{mask:url(#mask-4);}.cls-20{fill:url(#ÅÂÁ_Ï_ÌÌ_È_ËÂÌÚ_107);}.cls-21{filter:url(#luminosity-noclip-2);}.cls-22{filter:url(#luminosity-noclip);}</style><filter id="luminosity-noclip" x="74.84" y="-9689.75" width="174.15" height="32766" filterUnits="userSpaceOnUse" color-interpolation-filters="sRGB"><feFlood flood-color="#fff" result="bg"/><feBlend in="SourceGraphic" in2="bg"/></filter><mask id="mask" x="74.84" y="-9689.75" width="174.15" height="32766" maskUnits="userSpaceOnUse"><g class="cls-22"/></mask><linearGradient id="ÅÂÁ_Ï_ÌÌ_È_ËÂÌÚ_2" x1="7064.37" y1="150.44" x2="7236.02" y2="150.44" gradientTransform="matrix(-1, 0, 0, 1, 7311.58, 0)" gradientUnits="userSpaceOnUse"><stop offset="0" stop-color="#fff"/><stop offset="1"/></linearGradient><filter id="luminosity-noclip-2" x="194.83" y="-9689.75" width="62.48" height="32766" filterUnits="userSpaceOnUse" color-interpolation-filters="sRGB"><feFlood flood-color="#fff" result="bg"/><feBlend in="SourceGraphic" in2="bg"/></filter><mask id="mask-2" x="194.83" y="-9689.75" width="62.48" height="32766" maskUnits="userSpaceOnUse"><g class="cls-21"/></mask><linearGradient id="ÅÂÁ_Ï_ÌÌ_È_ËÂÌÚ_2-2" x1="7095.7" y1="104.59" x2="7083.68" y2="86.04" xlink:href="#ÅÂÁ_Ï_ÌÌ_È_ËÂÌÚ_2"/><linearGradient id="_01" x1="212.24" y1="183.48" x2="154.65" y2="183.48" gradientUnits="userSpaceOnUse"><stop offset="0" stop-color="#dbdffe"/><stop offset="1" stop-color="#f2f3fb"/></linearGradient><linearGradient id="çÓ_È_Ó·_ÁÂ_ËÂÌÚ_1" y1="137.82" x2="358.22" y2="137.82" gradientUnits="userSpaceOnUse"><stop offset="0" stop-color="#f7f8ff"/><stop offset="1" stop-color="#f2f3fb"/></linearGradient><filter id="luminosity-noclip-3" x="74.84" y="110.19" width="174.15" height="80.5" filterUnits="userSpaceOnUse" color-interpolation-filters="sRGB"><feFlood flood-color="#fff" result="bg"/><feBlend in="SourceGraphic" in2="bg"/></filter><mask id="mask-3" x="74.84" y="110.19" width="174.15" height="80.5" maskUnits="userSpaceOnUse"><g class="cls-1"><path class="cls-2" d="M149.65,165.13l-34.5-20c-4-2.28-5.78-5.38-5.57-8.59.23-3.52,2.9-7.18,7.9-10.06L138,114.75c9.56-5.52,24-6.11,32.3-1.33l73.12,42.29c4,2.28,5.77,5.38,5.56,8.59-.23,3.52-2.89,7.18-7.89,10.06l-20.51,11.77a37.45,37.45,0,0,1-18.32,4.55H74.84V165.13Z"/></g></mask><linearGradient id="ÅÂÁ_Ï_ÌÌ_È_ËÂÌÚ_10" x1="7064.37" y1="150.44" x2="7236.02" y2="150.44" gradientTransform="matrix(-1, 0, 0, 1, 7311.58, 0)" gradientUnits="userSpaceOnUse"><stop offset="0" stop-color="#bcc0eb"/><stop offset="1" stop-color="#bcc0eb"/></linearGradient><linearGradient id="ÅÂÁ_Ï_ÌÌ_È_ËÂÌÚ_15" x1="7032.65" y1="120.28" x2="7172.08" y2="120.28" gradientTransform="matrix(-1, 0, 0, 1, 7311.58, 0)" xlink:href="#_01"/><linearGradient id="ÅÂÁ_Ï_ÌÌ_È_ËÂÌÚ_6" x1="7108.03" y1="124.39" x2="7090.29" y2="99.23" gradientTransform="matrix(-1, 0, 0, 1, 7311.58, 0)" gradientUnits="userSpaceOnUse"><stop offset="0" stop-color="#fff"/><stop offset="1" stop-color="#f2f3fb"/></linearGradient><linearGradient id="ÅÂÁ_Ï_ÌÌ_È_ËÂÌÚ_111" x1="7085.51" y1="117.75" x2="7085.51" y2="-10.92" gradientTransform="matrix(-1, 0, 0, 1, 7311.58, 0)" gradientUnits="userSpaceOnUse"><stop offset="0" stop-color="#5263ff"/><stop offset="1" stop-color="#020059"/></linearGradient><filter id="luminosity-noclip-4" x="194.83" y="54.23" width="62.48" height="69.27" filterUnits="userSpaceOnUse" color-interpolation-filters="sRGB"><feFlood flood-color="#fff" result="bg"/><feBlend in="SourceGraphic" in2="bg"/></filter><mask id="mask-4" x="194.83" y="54.23" width="62.48" height="69.27" maskUnits="userSpaceOnUse"><g class="cls-3"><polygon class="cls-4" points="194.83 85.18 257.3 123.51 257.3 90.79 194.83 54.23 194.83 85.18"/></g></mask><linearGradient id="ÅÂÁ_Ï_ÌÌ_È_ËÂÌÚ_107" x1="7095.7" y1="104.59" x2="7083.68" y2="86.04" gradientTransform="matrix(-1, 0, 0, 1, 7311.58, 0)" gradientUnits="userSpaceOnUse"><stop offset="0" stop-color="#8591ff"/><stop offset="1" stop-color="#fff"/></linearGradient></defs><title>Our-Services_Faciliation_1</title><g class="cls-5"><g id="Layer_2" data-name="Layer 2"><g id="Layer_1-2" data-name="Layer 1"><path class="cls-6" d="M358.2,158.71c-.28-4.32-3.55-8.8-9.68-12.33L200.31,60.89c-11.73-6.77-29.47-7.5-39.63-1.63L6.85,148.16C2,151-.24,154.77,0,158.71.3,163,3.57,167.51,9.7,171l148.21,85.49c11.73,6.77,29.48,7.49,39.63,1.63l153.84-88.91C356.22,166.45,358.46,162.65,358.2,158.71Z"/><path class="cls-7" d="M358.2,155.51h0V140.8L298.07,170l-97.76-56.39c-11.73-6.77-29.47-7.5-39.63-1.63L60.23,170.06,0,140.8v13.61a9.91,9.91,0,0,0,0,1.09c.28,4.31,3.55,8.8,9.68,12.33l148.21,85.49a45.7,45.7,0,0,0,21.21,5.57h0c6.89.17,13.53-1.12,18.42-3.94L351.38,166C356.22,163.24,358.46,159.45,358.2,155.51Z"/><path class="cls-8" d="M358.2,140.8c-.28-4.31-3.55-8.79-9.68-12.33L200.31,43c-11.73-6.76-29.47-7.49-39.63-1.62L6.85,130.26C2,133.06-.24,136.86,0,140.8c.28,4.32,3.55,8.8,9.68,12.34l148.21,85.49c11.73,6.76,29.48,7.49,39.63,1.62l153.84-88.9C356.22,148.55,358.46,144.75,358.2,140.8Z"/><path class="cls-9" d="M358.2,137.82c-.28-4.31-3.55-8.8-9.68-12.33L200.31,40c-11.73-6.77-29.47-7.5-39.63-1.63L6.85,127.27C2,130.08-.24,133.88,0,137.82c.28,4.31,3.55,8.8,9.68,12.33l148.21,85.49c11.73,6.77,29.48,7.49,39.63,1.63l153.84-88.91C356.22,145.56,358.46,141.76,358.2,137.82Z"/><g class="cls-10"><path class="cls-11" d="M149.65,165.13l-34.5-20c-4-2.28-5.78-5.38-5.57-8.59.23-3.52,2.9-7.18,7.9-10.06L138,114.75c9.56-5.52,24-6.11,32.3-1.33l73.12,42.29c4,2.28,5.77,5.38,5.56,8.59-.23,3.52-2.89,7.18-7.89,10.06l-20.51,11.77a37.45,37.45,0,0,1-18.32,4.55H74.84V165.13Z"/></g><polygon class="cls-6" points="176.44 179.54 156.68 168.13 136.93 179.54 156.68 190.95 176.44 179.54"/><polygon class="cls-12" points="176.44 154.71 176.44 177.4 156.68 188.8 156.68 166.12 176.44 154.71"/><polygon class="cls-6" points="136.93 154.71 136.93 177.4 156.68 188.8 156.68 166.12 136.93 154.71"/><polygon class="cls-13" points="176.44 154.71 156.68 143.31 136.93 154.71 156.68 166.12 176.44 154.71"/><path class="cls-14" d="M145.08,115,218.2,157.3c8.28,4.78,22.75,4.19,32.31-1.33L271,144.2c5-2.88,7.66-6.54,7.89-10,.21-3.22-1.61-6.32-5.56-8.6L200.22,83.26c-8.27-4.78-22.74-4.19-32.3,1.33L147.41,96.36c-5,2.89-7.66,6.54-7.89,10.06C139.31,109.63,141.13,112.73,145.08,115Z"/><path class="cls-15" d="M145.08,111.09l73.12,42.28c8.28,4.79,22.75,4.19,32.31-1.32L271,140.27c5-2.88,7.66-6.53,7.89-10.05.21-3.21-1.61-6.31-5.56-8.6L200.22,79.34c-8.27-4.79-22.74-4.19-32.3,1.32L147.41,92.44c-5,2.88-7.66,6.54-7.89,10C139.31,105.71,141.13,108.8,145.08,111.09Z"/><path class="cls-16" d="M229.82,137.38l11.84-6.83a4.49,4.49,0,0,0,0-7.77l-53-30.63a12,12,0,0,0-12,0L164.77,99a4.49,4.49,0,0,0,0,7.77l53,30.63A12,12,0,0,0,229.82,137.38Z"/><path class="cls-17" d="M250.86,29.51,201.27.88c-3.56-2-6.44-.39-6.44,3.72V61.87A14.24,14.24,0,0,0,201.27,73l49.59,28.63c3.56,2,6.44.39,6.44-3.72V40.67A14.24,14.24,0,0,0,250.86,29.51Z"/><path class="cls-18" d="M201.51,36.79V14c0-.73.59-1,1.32-.56h0a2.73,2.73,0,0,1,1.33,2.09V38.33c0,.73-.59,1-1.33.56h0A2.76,2.76,0,0,1,201.51,36.79Z"/><path class="cls-18" d="M212.85,56.25V38.83c0-.73.59-1,1.32-.56h0a2.76,2.76,0,0,1,1.33,2.09V57.78c0,.73-.6,1-1.33.56h0A2.75,2.75,0,0,1,212.85,56.25Z"/><path class="cls-18" d="M235.52,58.83V46.11c0-.74.59-1,1.33-.56h0a2.75,2.75,0,0,1,1.32,2.09V60.36c0,.73-.59,1-1.32.56h0A2.73,2.73,0,0,1,235.52,58.83Z"/><path class="cls-18" d="M246.86,70.54V57.82c0-.73.59-1,1.32-.56h0a2.73,2.73,0,0,1,1.33,2.09V72.07c0,.73-.59,1-1.33.56h0A2.75,2.75,0,0,1,246.86,70.54Z"/><path class="cls-18" d="M224.18,69v-38c0-.73.6-1,1.33-.56h0a2.76,2.76,0,0,1,1.33,2.09v38c0,.73-.6,1-1.33.56h0A2.76,2.76,0,0,1,224.18,69Z"/><g class="cls-19"><polygon class="cls-20" points="194.83 85.18 257.3 123.51 257.3 90.79 194.83 54.23 194.83 85.18"/></g></g></g></g></svg>