<svg xmlns="http://www.w3.org/2000/svg" viewBox="0 0 243.37 243.37"><defs><style>.cls-1{fill:#1d1d1b;}</style></defs><title>ICO-Quickly-Build-&amp;amp;-Iterate-black</title><g id="Layer_2" data-name="Layer 2"><g id="Layer_1-2" data-name="Layer 1"><g id="_9ldRCX.tif" data-name="9ldRCX.tif"><path class="cls-1" d="M243.37,86C242,87.91,240.14,88.3,238,88.3c-11.57,0-23.13,0-34.7,0-3.95,0-5.11-1.18-5.11-5.08V69.45H168c0,.62-.13,1.29-.13,2,0,16.55,0,33.11,0,49.67a3,3,0,0,0,2,3.17c4.47,2,8.85,4.25,13.31,6.29a4.59,4.59,0,0,1,3,4.61c0,5.3,0,10.61,0,15.92a7.6,7.6,0,0,1-.21,1.64,3.23,3.23,0,0,1-3.35,2.77,3.13,3.13,0,0,1-3.5-2.85,60,60,0,0,1-.24-6.15c0-2,0-4,0-6.25-.86.32-1.48.52-2.07.8Q152,152.82,127.28,164.58a2.89,2.89,0,0,0-2,3c.06,21.39,0,42.78,0,64.17,0,.62.08,1.24.15,2.16,1-.47,1.87-.84,2.7-1.23,16.07-7.66,32.12-15.36,48.22-22.95,1.82-.86,2.54-1.8,2.52-3.87-.11-12.2-.06-24.4-.05-36.6,0-3.81,1.17-5.59,3.64-5.59s3.65,1.78,3.65,5.59c0,13.15-.06,26.3.05,39.45,0,3.09-1,4.89-3.89,6.24-19.12,9-38.16,18.13-57.22,27.22-.7.34-1.34.78-2,1.18h-2.85l-16.34-8c-.79-.38-1.6-.71-2.35-1.14-2-1.15-2.71-2.94-1.9-4.76a3.56,3.56,0,0,1,5-1.74c3.6,1.62,7.14,3.4,10.71,5.09.77.37,1.56.67,2.66,1.13v-2.85c0-21,0-42,0-63a3.5,3.5,0,0,0-2.38-3.73c-16.17-7.62-32.29-15.35-48.42-23-.77-.37-1.57-.68-2.76-1.18v3c0,20.91,0,41.82,0,62.73a3.47,3.47,0,0,0,2.31,3.77c7.7,3.52,15.3,7.23,22.94,10.88A15.71,15.71,0,0,1,92,221.79a3.29,3.29,0,0,1,1.29,4.36,3.35,3.35,0,0,1-4.1,2,10,10,0,0,1-2.19-.88c-8.79-4.17-17.55-8.4-26.37-12.5a5.26,5.26,0,0,1-3.47-5.31q.08-37,0-73.9a5.1,5.1,0,0,1,3.32-5.16c9.1-4.25,18.12-8.67,27.23-12.91a3,3,0,0,0,2-3.22c-.1-4.51-.08-9,0-13.54,0-1.58-.5-2.07-2-2-3.8.07-7.61.19-11.39-.1a5.3,5.3,0,0,1-3.5-2.23c-.49-.76-.15-2.54.46-3.42a4.2,4.2,0,0,1,3-1.43q8.31-.21,16.63,0c2.79.06,4,1.52,4,4.52,0,4.36,0,8.71,0,13.07V113c1-.45,1.8-.77,2.56-1.13,6.43-3,12.88-6.07,19.27-9.21a6,6,0,0,1,5.85,0c2.51,1.31,5.11,2.45,7.94,3.8V26.35H106c0,.82-.12,1.65-.13,2.49,0,4,0,7.92,0,11.88-.06,3-1.34,4.44-4.07,4.45q-18.54.07-37.07,0c-3,0-4.13-1.43-4.14-4.84,0-10.85,0-21.7,0-32.55,0-.79,0-1.58,0-2.37A5.77,5.77,0,0,1,62.74,0h40.88a5.36,5.36,0,0,1,2.29,4.66c0,1.75,0,3.49,0,5.23,0,3,0,5.95,0,9.08h2.93c8.88,0,17.75,0,26.62,0,3.19,0,4.46,1.24,4.6,4.4,0,.4,0,.79,0,1.19q0,41.58,0,83.18a3.13,3.13,0,0,0,2.17,3.37c3.48,1.52,6.87,3.23,10.3,4.86l8.11,3.83V67.43c0-4.42,1-5.47,5.45-5.48H195.3c.91,0,1.82-.09,2.86-.14V48.49c0-4.53,1.05-5.59,5.59-5.58,11.41,0,22.82,0,34.23,0,2.16,0,4.06.36,5.39,2.25ZM117.84,157.44V111.13c-6.82,3.26-13.38,6.36-19.88,9.56a2.38,2.38,0,0,0-1,1.85Q96.9,134.29,97,146a2.41,2.41,0,0,0,1,1.85C104.49,151.08,111,154.18,117.84,157.44Zm22.39-7c6.79-3.24,13.21-6.25,19.57-9.38.48-.24.77-1.29.78-2,.08-3.16,0-6.32.06-9.48a2.31,2.31,0,0,0-1.6-2.51c-3.66-1.67-7.27-3.46-10.91-5.19-2.54-1.21-5.09-2.4-7.9-3.73ZM98.45,23.59V7.35H68.05V23.59Zm107,43H236V50.43H205.47Zm-80,90.83a61.6,61.6,0,0,0,5.74-2.76,3.21,3.21,0,0,0,1.44-2.28c.1-12,.09-24.08.06-36.12,0-.63-.21-1.61-.65-1.85-2.08-1.17-4.27-2.13-6.59-3.25ZM98.4,37.88V31.12H68.05v6.76ZM205.54,74.1v6.7H236V74.1Zm-116,69.84V124.62l-20.23,9.66Zm78.4-6.73,6.17-2.92-6.17-2.95Z"/><path class="cls-1" d="M0,74.63c1.33-1.87,3.22-2.26,5.39-2.25,11.48,0,23,0,34.44,0,4.23,0,5.36,1.12,5.37,5.32V91.27c1,0,1.93.13,2.84.14,4,0,8.08,0,12.11,0,2.72.06,4.17,1.36,4.24,3.5s-1.46,3.7-4.24,3.76c-4,.09-8.07,0-12.11,0H45.21c0,4.73,0,9.22,0,13.71,0,4.19-1.12,5.32-5.38,5.32-11.48,0-23,0-34.44,0-2.15,0-4.07-.35-5.39-2.24ZM7.31,96H37.85V79.86H7.31Zm30.54,7.63H7.37v6.61H37.85Z"/><path class="cls-1" d="M83.27,19c-1.26,0-2.53.09-3.78,0a3.6,3.6,0,0,1-3.43-3.55,3.56,3.56,0,0,1,3.43-3.55,70.6,70.6,0,0,1,7.56,0,3.4,3.4,0,0,1,3.27,3.65A3.41,3.41,0,0,1,87.05,19a34,34,0,0,1-3.78,0Z"/><path class="cls-1" d="M220.92,62.23c-1.59-.12-3-.12-4.4-.35a3.17,3.17,0,0,1-2.79-3.53c0-1.77,1-3.16,2.79-3.27a63,63,0,0,1,8.69,0c1.8.14,2.67,1.6,2.67,3.36a3.13,3.13,0,0,1-2.68,3.39A38.9,38.9,0,0,1,220.92,62.23Z"/><path class="cls-1" d="M22.63,84.21c1.41.09,2.83.09,4.23.3a3.12,3.12,0,0,1,2.8,3.28c.06,1.86-.83,3.39-2.75,3.53a57.3,57.3,0,0,1-8.69,0c-1.8-.13-2.7-1.56-2.7-3.33a3.17,3.17,0,0,1,2.87-3.47C19.78,84.29,21.21,84.3,22.63,84.21Z"/></g></g></g></svg>