<?xml version="1.0" encoding="utf-8"?>
<!-- Generator: Adobe Illustrator 24.0.3, SVG Export Plug-In . SVG Version: 6.00 Build 0)  -->
<svg version="1.1" id="Layer_1" xmlns="http://www.w3.org/2000/svg" xmlns:xlink="http://www.w3.org/1999/xlink" x="0px" y="0px"
	 viewBox="0 0 216.2 209" style="enable-background:new 0 0 216.2 209;" xml:space="preserve">
<style type="text/css">
	.st0{fill:#1D1D1B;}
</style>
<title>ICO-Grow Revenues &amp;amp; Margins-Black</title>
<g id="Layer_2_1_">
	<g id="Layer_1-2">
		<path class="st0" d="M46.5,29.3c-1.4-5.8-2.9-11.2-4.1-16.7c-1.2-5.5,2.2-11,7.8-12.3c1.1-0.2,2.2-0.3,3.3-0.2
			c2.2,0.4,4.2,1.2,6,2.5c3.4,2.3,6.6,4.9,10.1,7.5c3.6-2.7,7-5.4,10.6-7.9C84.7-1.4,91.3-0.6,94.8,4c1.1,1.5,1.8,3.2,2.1,5
			c0.2,1.7,0,3.5-0.4,5.2c-1.1,5-2.4,9.9-3.7,14.8c0.3,0.1,0.4,0.3,0.5,0.3c4-0.3,6,1,5.7,6.1c-0.2,2.9-0.2,5.8,0,8.7
			c0.1,1,0.5,1.9,1.3,2.6c1.8,1.5,3.8,2.8,5.9,4.3c0.8-3.2,3.3-3.5,6.3-3.2c-0.9-3.9-1.8-7.6-2.7-11.2c-0.4-1.8-0.9-3.5-1.3-5.3
			c-1-4.2,0.7-8.6,4.3-11c3.6-2.5,8.3-2.5,11.8,0c3.7,2.6,7.2,5.4,11,8.2c3.5-2.6,7-5.4,10.6-7.9c4.5-3.5,11.1-2.7,14.6,1.9
			c1.1,1.4,1.8,3.2,2.1,5c0.2,1.7,0,3.5-0.4,5.2c-1.1,5-2.4,9.9-3.7,14.8c0.3,0.2,0.4,0.3,0.5,0.3c5.1,0.3,5.7,0.9,5.7,6
			c0,2.9-0.1,5.8,0.1,8.7c0.1,1.1,0.6,2,1.4,2.7c6.6,4.6,12.6,9.6,16.9,16.6c4.7,7.4,7.2,16,7.3,24.7c0.1,6.4,0,12.8,0,19.2v2.7
			c3.5,0,6.7,0,10,0c3.4,0,4.7,1.3,4.7,4.7c0,21.8,0,43.7,0,65.5v3h10.9v7.4H0v-7.2h26.1l0.5-0.8c-0.5-0.2-1.1-0.5-1.5-0.9
			c-6.8-6.3-10.7-15.2-10.5-24.5c0-28.6,0-57.1,0-85.7c0-17.1,6.9-30.8,20.9-40.6c3.6-2.5,5.5-5,4.8-9.4c-0.2-1.9-0.2-3.8,0-5.7
			c0-3.6,1.2-4.8,4.8-4.9L46.5,29.3z M117.1,128.3c0-0.6,0.1-1.1,0.1-1.5c0-13.1,0-26.1,0-39.2c-0.1-5.6-1.4-11.1-3.8-16.1
			c-3.8-8.3-10.2-14.1-17.8-19c-1.1-0.7-2.3-1.1-3.6-1.1c-13.2-0.1-26.4,0.2-39.6-0.2c-4.9-0.2-9.8,1.4-13.6,4.5
			C29.5,63,23.5,72.1,22.4,84c-0.7,7.1-0.4,14.3-0.4,21.5c0,23.4,0,46.8,0,70.1c0,14.5,11,25.9,25.2,26.1c15,0.2,29.9,0.1,44.9,0
			c6,0,11.8-2.3,16.3-6.4c0.9-0.9,1.4-2,1.5-3.3c0.1-9.1,0.1-18.2,0.1-27.3v-31.2c0-4.1,1.1-5.2,5.1-5.2
			C115.7,128.4,116.3,128.4,117.1,128.3L117.1,128.3z M183.2,128.3c0-7.4,0-14.6,0-21.8c-0.1-6-1.5-11.9-4.1-17.2
			c-4-8.6-11-14.3-18.7-19.3c-0.7-0.3-1.4-0.4-2.2-0.3c-7.2,0-14.5,0-21.8,0h-16c5.9,12.4,3.5,25.4,4.2,38c2.9-0.6,5.9-1.1,8.9-1.3
			c15.8-0.4,27.4,6.4,34.9,20.3c0.4,0.8,1.1,1.4,2,1.6C174.7,128.4,178.8,128.4,183.2,128.3L183.2,128.3z M150.5,135.8v65.8h14.3
			v-65.7L150.5,135.8z M85,29.3c1.5-5.8,2.8-11.5,4.3-17.2c0.4-1.7,0.4-3.2-1.2-4.2s-2.9-0.4-4.2,0.6c-3.7,2.8-7.3,5.5-11,8.2
			C70,19,69.2,19,66.1,16.7c-3.8-2.8-7.5-5.8-11.4-8.4c-1.1-0.6-2.5-0.7-3.7-0.2c-0.9,0.7-1.4,1.8-1.3,3c1.3,6.1,2.9,12.1,4.5,18.2
			L85,29.3L85,29.3z M151,47.7c1.5-5.9,2.8-11.5,4.3-17.1c0.4-1.7,0.5-3.2-1.1-4.3s-3-0.3-4.4,0.7c-3.5,2.7-7.1,5.3-10.6,8
			c-3.2,2.4-3.9,2.4-7.2-0.1c-3.7-2.8-7.4-5.7-11.2-8.3c-1.1-0.6-2.4-0.7-3.5-0.3c-1,0.7-1.5,1.8-1.5,3c1.3,6.2,3,12.2,4.5,18.4
			L151,47.7L151,47.7z M160.7,128.4c-6.3-11.9-22.5-17.8-34.7-12.9c-0.6,0.2-1.3,0.8-1.3,1.2c-0.1,3.9-0.1,7.7-0.1,12.5
			c2.6-1.5,4.9-2.3,6.6-3.9c0.9-0.8,0.7-2.7,1-4.1h6.7c1.1,1.5-0.8,3.6,1.6,4.6c1.6,0.7,2.9,2.4,4.4,2.5
			C150.1,128.6,155.3,128.4,160.7,128.4L160.7,128.4z M47.7,43.8h43.8v-6.9H47.7V43.8z M157.5,62.3v-7.1h-43.7
			c-0.4,4.6,1.9,7.1,6.2,7.1C120,62.3,157.5,62.3,157.5,62.3z M117.3,142.9h25.4v-7h-25.4L117.3,142.9z M197.9,135.9h-25.4v7h25.4
			L197.9,135.9z M142.8,157.5v-7h-25.4v7H142.8z M197.8,157.6v-7.1h-25.3v7.1H197.8z M142.8,172.2v-7.1h-25.3v7.1H142.8z
			 M197.9,165.2h-25.5v6.9h25.4L197.9,165.2z M117.4,186.8h25.4v-6.9h-25.5L117.4,186.8z M172.6,179.8v7.1h25.3v-7.1H172.6z
			 M117.5,201.5h25.4v-7h-25.4L117.5,201.5z M172.5,194.5v7h25.4v-7H172.5z"/>
		<path class="st0" d="M0,99.1h7.1v80.5H0V99.1z"/>
		<path class="st0" d="M205.2,113.7h-7.3c0.8-17.2-4.1-32.3-15.9-44.9l5.1-5.3C200.4,77.6,206.1,94.3,205.2,113.7z"/>
		<path class="st0" d="M0.1,84.5h7.1v7.2H0.1V84.5z"/>
		<path class="st0" d="M69.5,165.1c-20.3-0.1-36.6-16.7-36.5-36.9S49.7,91.6,70,91.7c20.1,0.1,36.4,16.8,36.3,37.2
			C106,148.9,89.6,165.1,69.5,165.1z M98.9,128.6C99,112.4,86,99.2,69.8,99.1S40.4,112,40.3,128.2c-0.1,16.2,12.9,29.4,29.1,29.5
			c0.1,0,0.2,0,0.2,0C85.7,157.6,98.8,144.7,98.9,128.6z"/>
	</g>
</g>
<g>
	<path d="M57.6,140.1v-3.8c2.5-1,5.3-3.7,5.3-6.9c0-0.7,0-1.2-0.1-1.9h-4.6v-4.8h3.8c-0.2-1.2-0.4-2.5-0.4-3.8
		c0-5.9,4.3-9.8,10.6-9.8c2.6,0,4.5,0.6,5.5,1.1l-1.2,5.4c-0.9-0.5-2.2-0.8-3.9-0.8c-3.3,0-4.4,2.2-4.4,4.4c0,1.2,0.1,2.3,0.4,3.5
		H75v4.8h-5.8c0,1.2,0,2.3-0.4,3.3c-0.4,1.2-1.2,2.3-2.3,3.3v0.1H79v5.8H57.6z"/>
</g>
</svg>
