<svg xmlns="http://www.w3.org/2000/svg" viewBox="0 0 236.1 235.73"><defs><style>.cls-1{fill:#1d1d1b;}</style></defs><title>ICO-Low-Cost-Capital-Black</title><g id="Layer_2" data-name="Layer 2"><g id="Layer_1-2" data-name="Layer 1"><path class="cls-1" d="M236.1,6.45c-.59,5.41-1.25,10.81-1.78,16.22q-2.5,25.44-4.94,50.89c-.47,4.82-.95,9.63-1.4,14.45a3.68,3.68,0,0,1-2.54,3.48c-1.69.6-3-.06-4.13-1.23Q214.14,83.07,207,75.92c-.53-.53-1.1-1-2.15-2a17.51,17.51,0,0,1-1.65,2.34q-41.94,42-83.92,84a18,18,0,0,1-2,1.89,3.43,3.43,0,0,1-4.63-.23,3.57,3.57,0,0,1-.44-4.8,13.83,13.83,0,0,1,1.56-1.69q43.83-43.85,87.68-87.68c3.16-3.16,4.52-3.17,7.66,0,4,4,7.91,7.92,12.34,12.38,2.36-24.34,4.66-48.1,7-72.33l-72.34,7L168.38,27c3.23,3.24,3.23,4.58,0,7.83Q110.09,93.08,51.81,151.32a18.87,18.87,0,0,1-2,1.56L83,186.12l10.54-10.56c2.33-2.34,4.64-4.7,7-7,1.82-1.76,4-1.85,5.52-.33s1.44,3.68-.37,5.5q-10,10.07-20,20c-1.94,1.93-3.94,1.94-5.86,0Q61,175.08,42.29,156.31c-1.92-1.94-1.83-3.83.07-5.86.52-.56,1.08-1.09,1.62-1.64l116-116c.58-.59,1.14-1.2,1.87-2L148.3,17.25l-2.44-2.44c-1.17-1.15-1.87-2.43-1.24-4.13a3.71,3.71,0,0,1,3.47-2.55C154,7.58,159.86,7,165.74,6.42l40.35-3.94c7.1-.69,14.21-1.36,21.32-2.06.75-.07,1.49-.28,2.24-.42h6.45Z"/><path class="cls-1" d="M182.22,224.53a42.2,42.2,0,1,1,42.37-42A42.28,42.28,0,0,1,182.22,224.53ZM147.57,182.2a34.83,34.83,0,1,0,35-34.7A34.75,34.75,0,0,0,147.57,182.2Z"/><path class="cls-1" d="M9.21,51.27A42.2,42.2,0,1,1,51.33,93.54,42.11,42.11,0,0,1,9.21,51.27Zm7.32,0A34.86,34.86,0,1,0,51.4,16.47,34.86,34.86,0,0,0,16.53,51.27Z"/><path class="cls-1" d="M69.18,209.29a17.32,17.32,0,0,1-3-1.89Q47.43,188.74,28.74,170c-1.85-1.85-1.95-3.88-.41-5.48s3.69-1.53,5.5.27q18.83,18.76,37.6,37.58c1.28,1.28,1.78,2.88.84,4.38C71.61,207.78,70.3,208.4,69.18,209.29Z"/><path class="cls-1" d="M17.1,176.53a16.92,16.92,0,0,1,3,1.83Q39,197.14,57.79,216c1.72,1.72,1.73,3.82.25,5.32s-3.74,1.47-5.51-.3Q33.75,202.3,15,183.55c-1.29-1.28-1.85-2.85-1-4.37C14.69,178.12,16,177.46,17.1,176.53Z"/><path class="cls-1" d="M46,232.35c-.91,1.24-1.44,2.63-2.42,3.11a6.14,6.14,0,0,1-3.65,0c-.65-.14-1.18-.94-1.72-1.48l-36-36a12.55,12.55,0,0,1-1.4-1.52,3.37,3.37,0,0,1,.31-4.62,3.43,3.43,0,0,1,4.61-.51,9.05,9.05,0,0,1,1.54,1.37q18.11,18.09,36.17,36.2A31.72,31.72,0,0,1,46,232.35Z"/><path class="cls-1" d="M178.66,203.56c-5-1.05-8.35-3.74-9.62-8.65a9.58,9.58,0,0,1-.27-2.5,3.37,3.37,0,0,1,3.14-3.63,3.41,3.41,0,0,1,4,2.71c1.37,4.61,5.78,6.39,10.14,4.06a4.76,4.76,0,0,0,2.6-5.19,4.49,4.49,0,0,0-3.55-4.07A21.52,21.52,0,0,0,181,186a12.49,12.49,0,0,1-12.1-10.34A12.29,12.29,0,0,1,177,161.93c1.63-.57,1.85-1.4,1.83-2.84,0-3.76,1.22-5.55,3.7-5.47S186,155.37,186,159c0,.6,0,1.21,0,1.93.81.26,1.52.47,2.22.71,6.65,2.29,8.53,8,7.67,14a3.22,3.22,0,0,1-3.25,2.76A3.31,3.31,0,0,1,189,175.9a23.93,23.93,0,0,1-.31-3,6.27,6.27,0,0,0-.61-2.62c-2-2.88-5.1-1.9-7.83-1.67a4.42,4.42,0,0,0-4,3.85,4.91,4.91,0,0,0,4.2,6,34.29,34.29,0,0,0,3.67.19A12.35,12.35,0,0,1,188,202.66a2.55,2.55,0,0,0-2,2.94c.08,3.66-1.09,5.36-3.49,5.44s-3.7-1.69-3.75-5.45C178.75,205,178.7,204.38,178.66,203.56Z"/><path class="cls-1" d="M49.66,61.87a11.3,11.3,0,0,0,1.88-4,15.65,15.65,0,0,0,.33-4.67h6.74V47.57H51.17a22.44,22.44,0,0,1-.39-4.12c0-3.33,1.43-5,4.26-5a7.86,7.86,0,0,1,3.86.84l1.36.76L62,34.31l-.82-.51A11.65,11.65,0,0,0,55,32.36c-6.41,0-10.89,4.54-10.89,11a29.82,29.82,0,0,0,.34,4.17H40v5.67h5.33a21.56,21.56,0,0,1,.09,2.26,8.72,8.72,0,0,1-5,7.66l-.69.35v4.54H63.07V61.87Z"/></g></g></svg>