<svg xmlns="http://www.w3.org/2000/svg" viewBox="0 0 158.63 202.7"><defs><style>.cls-1{fill:#1d1d1b;}</style></defs><title>ICO-Differentiate your Proposition-Black</title><g id="Layer_2" data-name="Layer 2"><g id="Layer_1-2" data-name="Layer 1"><path class="cls-1" d="M20.27,0a9.5,9.5,0,0,1,1.61,1.9c.92,2-.48,4-2.82,4.05C15.43,6,11.8,6,8.17,5.94,6.5,5.9,6,6.53,6,8.14c.06,9,0,18.08,0,27.12V161.33c0,3,0,3,3.06,3H112c2.84,0,2.85,0,2.85-2.79V8.73c0-2.76,0-2.76-2.71-2.76H33.79c-.53,0-1.06,0-1.58,0-1.71.12-3.23-.22-3.86-2S28.81,1,30.17,0h85.52c4,1.68,5.54,4.71,5.19,9-.19,2.3,0,4.62,0,7.26H124c2.9,0,5.81,0,8.71,0,4.34,0,7.13,2.84,7.19,7.21,0,2.77,0,5.54,0,8.31a3.3,3.3,0,0,0,.21.67c2.7,0,5.52.17,8.32,0,7.76-.53,10.33,2.65,10.18,10.08-.28,14-.08,28.1-.08,42.16a15.69,15.69,0,0,1-.07,2.17,2.48,2.48,0,0,1-2.64,2.42,5.16,5.16,0,0,1-2.92-1.81c-.47-.52-.35-1.63-.35-2.47,0-14.71-.05-29.43,0-44.14,0-1.93-.57-2.52-2.47-2.44-3.34.14-6.69,0-10.24,0v85.87c0,.66,0,1.32,0,2a2.92,2.92,0,0,1-2.94,2.85,3,3,0,0,1-3-2.83,18.66,18.66,0,0,1,0-2q0-49.68,0-99.37c0-2.72,0-2.72-2.7-2.72H120.85V24.8q0,68.78,0,137.57c0,2.68-.53,5.16-2.9,6.52a10.83,10.83,0,0,1-5.21,1.34q-42.56.12-85.12.06H25.12c0,3.17-.05,6.12.06,9.07,0,.4.77.87,1.28,1.12a3.46,3.46,0,0,0,1.37,0H131.16c2.74,0,2.74,0,2.74-2.69q0-19.11,0-38.21a13,13,0,0,1,0-1.77,3,3,0,0,1,3.12-2.69,2.85,2.85,0,0,1,2.8,2.8c0,.53,0,1.06,0,1.59v38.79c0,5.67-2.51,8.15-8.24,8.15H43.79c0,3.15,0,6.1.06,9,0,.41.76.92,1.26,1.15a4.31,4.31,0,0,0,1.57,0q51.46,0,102.93,0c2.94,0,2.94,0,2.94-2.9V100a9.26,9.26,0,0,1,.15-2.36,2.95,2.95,0,0,1,5.79.38,15.12,15.12,0,0,1,0,1.78v94.62c0,5.81-2.49,8.28-8.32,8.28H46.1c-5.75,0-8.33-2.58-8.34-8.32v-7.89H27c-5.11,0-7.82-2.7-7.84-7.79v-8.4c-3.11,0-6.14-.18-9.13,0-7.5.54-10-2.89-10-9.91Q.22,84.69,0,9C0,4.75,1.25,1.7,5.23,0Z"/><path class="cls-1" d="M77.35,29.6A16.88,16.88,0,1,1,60.48,12.75,17,17,0,0,1,77.35,29.6Zm-6,.18A10.9,10.9,0,1,0,60.53,40.63,10.92,10.92,0,0,0,71.36,29.78Z"/><path class="cls-1" d="M60.24,75.67c-11,0-21.89,0-32.84,0a5,5,0,0,1-3-1,2.86,2.86,0,0,1,1.53-4.88,9.27,9.27,0,0,1,2-.09H93.14c.33,0,.66,0,1,0,2,.09,3.28,1.23,3.32,2.93s-1.29,3-3.38,3Q77.15,75.69,60.24,75.67Z"/><path class="cls-1" d="M60.44,84.28H92.89a17.62,17.62,0,0,1,1.78,0,2.78,2.78,0,0,1,2.75,2.82,2.83,2.83,0,0,1-2.51,3.06,8.69,8.69,0,0,1-1.77.06H27.86a13.85,13.85,0,0,1-1.58,0,3.05,3.05,0,0,1-2.8-3,3,3,0,0,1,2.94-2.87c1.31-.07,2.64,0,4,0Z"/><path class="cls-1" d="M60.48,119.3H28a14.56,14.56,0,0,1-2-.07,2.72,2.72,0,0,1-2.53-2.6,2.66,2.66,0,0,1,2-3,8.85,8.85,0,0,1,2.53-.27H93.89c2.24.09,3.62,1.29,3.56,3.12s-1.36,2.87-3.55,2.87Q77.19,119.32,60.48,119.3Z"/><path class="cls-1" d="M60.25,61.14h-32A14.27,14.27,0,0,1,26,61.05a2.92,2.92,0,0,1-.34-5.72,8.65,8.65,0,0,1,2.16-.19H93.13c.78,0,1.8-.12,2.29.3a5.51,5.51,0,0,1,1.93,2.85c.22,1.4-.81,2.45-2.3,2.73a11.1,11.1,0,0,1-2.16.12Z"/><path class="cls-1" d="M60.46,104.82H28a9.73,9.73,0,0,1-2.16-.14,2.93,2.93,0,0,1,.21-5.78,15.69,15.69,0,0,1,2.17-.08q32.24,0,64.48,0a18.7,18.7,0,0,1,2,0,2.78,2.78,0,0,1,2.72,2.85,2.81,2.81,0,0,1-2.55,3,9.94,9.94,0,0,1-2,.08Z"/><path class="cls-1" d="M77,146.76l12.2-14.85c.67-.81,1.32-1.64,2-2.45,1.49-1.76,3.19-2.06,4.62-.85s1.4,3,0,4.74c-4.21,5.16-8.6,10.18-12.63,15.48s-7.12,5.46-11.46.56c-1.53-1.73-3.3-3.23-4.92-4.88s-1.64-3.21-.33-4.52,3-1.26,4.53.3C72.91,142.31,74.79,144.43,77,146.76Z"/><path class="cls-1" d="M26.59,32.72c-2.17,0-4.34.05-6.51,0s-3.44-1.15-3.47-2.95,1.22-3.06,3.54-3.08q6.41-.08,12.83,0c2.35,0,3.59,1.16,3.57,3s-1.27,3-3.64,3C30.81,32.76,28.7,32.73,26.59,32.72Z"/><path class="cls-1" d="M94.11,32.72c-2.11,0-4.22.05-6.32,0s-3.41-1.21-3.41-3,1.23-3,3.42-3q6.61-.09,13.23,0c2.08,0,3.26,1.18,3.31,2.91s-1.17,3-3.32,3.1S96.41,32.72,94.11,32.72Z"/></g></g></svg>