<svg xmlns="http://www.w3.org/2000/svg" xmlns:xlink="http://www.w3.org/1999/xlink" viewBox="0 0 358.22 235.4"><defs><style>.cls-1{isolation:isolate;}.cls-2{fill:#bcc0eb;mix-blend-mode:multiply;}.cls-3{fill:url(#_01);}.cls-4{fill:#fff;}.cls-5{fill:url(#çÓ_È_Ó·_ÁÂ_ËÂÌÚ_1);}.cls-6{fill:#e6e8f7;}.cls-7{fill:url(#ÅÂÁ_Ï_ÌÌ_È_ËÂÌÚ_27);}.cls-8{fill:#ff5a70;}.cls-9{fill:#c9c9c9;}.cls-10{fill:url(#ÅÂÁ_Ï_ÌÌ_È_ËÂÌÚ_19);}</style><linearGradient id="_01" x1="212.24" y1="156.76" x2="154.65" y2="156.76" gradientUnits="userSpaceOnUse"><stop offset="0" stop-color="#dbdffe"/><stop offset="1" stop-color="#f2f3fb"/></linearGradient><linearGradient id="çÓ_È_Ó·_ÁÂ_ËÂÌÚ_1" y1="111.1" x2="358.22" y2="111.1" gradientUnits="userSpaceOnUse"><stop offset="0" stop-color="#f7f8ff"/><stop offset="1" stop-color="#f2f3fb"/></linearGradient><linearGradient id="ÅÂÁ_Ï_ÌÌ_È_ËÂÌÚ_27" x1="219.16" y1="24.69" x2="105.18" y2="162.79" gradientUnits="userSpaceOnUse"><stop offset="0" stop-color="#5263ff"/><stop offset="1" stop-color="#000255"/></linearGradient><linearGradient id="ÅÂÁ_Ï_ÌÌ_È_ËÂÌÚ_19" x1="184.17" y1="48.28" x2="168.94" y2="74.97" gradientUnits="userSpaceOnUse"><stop offset="0" stop-color="#ffae6c"/><stop offset="1" stop-color="#ff5a70"/></linearGradient></defs><title>Our-Services_Recommend</title><g class="cls-1"><g id="Layer_2" data-name="Layer 2"><g id="Layer_1-2" data-name="Layer 1"><path class="cls-2" d="M358.2,132c-.28-4.31-3.55-8.8-9.68-12.33L200.31,34.17c-11.73-6.77-29.47-7.49-39.63-1.63L6.85,121.45C2,124.25-.24,128.05,0,132c.28,4.31,3.55,8.8,9.68,12.33l148.21,85.49c11.73,6.77,29.48,7.5,39.63,1.63l153.84-88.9C356.22,139.73,358.46,135.93,358.2,132Z"/><path class="cls-3" d="M358.2,128.79h0V114.09l-60.15,29.22L200.31,86.92c-11.73-6.76-29.47-7.49-39.63-1.62L60.23,143.35,0,114.09v13.6a9.91,9.91,0,0,0,0,1.09c.28,4.32,3.55,8.8,9.68,12.34L157.91,226.6a45.83,45.83,0,0,0,21.21,5.58h0c6.89.17,13.53-1.13,18.42-4l153.84-88.9C356.22,136.53,358.46,132.73,358.2,128.79Z"/><path class="cls-4" d="M358.2,114.09c-.28-4.32-3.55-8.8-9.68-12.34L200.31,16.27c-11.73-6.77-29.47-7.5-39.63-1.63L6.85,103.54C2,106.35-.24,110.15,0,114.09c.28,4.31,3.55,8.8,9.68,12.33l148.21,85.49c11.73,6.76,29.48,7.49,39.63,1.62l153.84-88.9C356.22,121.83,358.46,118,358.2,114.09Z"/><path class="cls-5" d="M358.2,111.1c-.28-4.31-3.55-8.8-9.68-12.33L200.31,13.28c-11.73-6.77-29.47-7.49-39.63-1.62L6.85,100.56C2,103.36-.24,107.16,0,111.1c.28,4.32,3.55,8.8,9.68,12.34l148.21,85.48c11.73,6.77,29.48,7.5,39.63,1.63l153.84-88.9C356.22,118.84,358.46,115,358.2,111.1Z"/><path class="cls-6" d="M227.92,64.77v90.05a3.49,3.49,0,0,1-5.23,3l-93.87-54.2A11.66,11.66,0,0,1,123,93.54V3.49a3.49,3.49,0,0,1,5.23-3l93.87,54.2A11.65,11.65,0,0,1,227.92,64.77Z"/><path class="cls-7" d="M225.47,66.24v90a3.48,3.48,0,0,1-5.23,3l-93.87-54.19A11.69,11.69,0,0,1,120.53,95V5a3.49,3.49,0,0,1,5.23-3l93.87,54.19A11.69,11.69,0,0,1,225.47,66.24Z"/><polygon class="cls-4" points="199.96 109.17 201.86 110.27 201.86 108.06 199.96 106.97 199.96 109.17"/><polygon class="cls-4" points="204.89 112.01 206.79 113.11 206.79 110.91 204.89 109.81 204.89 112.01"/><polygon class="cls-8" points="209.81 114.86 211.72 115.96 211.72 113.75 209.81 112.66 209.81 114.86"/><polygon class="cls-8" points="214.74 117.7 216.65 118.8 216.65 116.6 214.74 115.5 214.74 117.7"/><polygon class="cls-4" points="185.17 106.29 187.08 107.39 187.08 105.19 185.17 104.09 185.17 106.29"/><polygon class="cls-4" points="190.1 109.14 192.01 110.24 192.01 108.04 190.1 106.94 190.1 109.14"/><polygon class="cls-4" points="195.03 111.98 196.94 113.08 196.94 110.88 195.03 109.78 195.03 111.98"/><polygon class="cls-4" points="199.96 114.83 201.86 115.93 201.86 113.73 199.96 112.63 199.96 114.83"/><polygon class="cls-4" points="204.89 117.67 206.79 118.77 206.79 116.57 204.89 115.47 204.89 117.67"/><polygon class="cls-8" points="209.81 120.52 211.72 121.62 211.72 119.42 209.81 118.32 209.81 120.52"/><polygon class="cls-8" points="214.74 123.36 216.65 124.46 216.65 122.26 214.74 121.16 214.74 123.36"/><polygon class="cls-4" points="185.17 111.96 187.08 113.06 187.08 110.86 185.17 109.76 185.17 111.96"/><polygon class="cls-4" points="190.1 114.8 192.01 115.9 192.01 113.7 190.1 112.6 190.1 114.8"/><polygon class="cls-4" points="195.03 117.65 196.94 118.75 196.94 116.55 195.03 115.45 195.03 117.65"/><polygon class="cls-4" points="199.96 120.49 201.86 121.59 201.86 119.39 199.96 118.29 199.96 120.49"/><polygon class="cls-4" points="204.89 123.34 206.79 124.44 206.79 122.24 204.89 121.14 204.89 123.34"/><polygon class="cls-8" points="209.81 126.18 211.72 127.28 211.72 125.08 209.81 123.98 209.81 126.18"/><polygon class="cls-8" points="214.74 129.03 216.65 130.13 216.65 127.93 214.74 126.83 214.74 129.03"/><polygon class="cls-4" points="185.17 117.62 187.08 118.72 187.08 116.52 185.17 115.42 185.17 117.62"/><polygon class="cls-4" points="190.1 120.47 192.01 121.57 192.01 119.36 190.1 118.27 190.1 120.47"/><polygon class="cls-4" points="195.03 123.31 196.94 124.41 196.94 122.21 195.03 121.11 195.03 123.31"/><polygon class="cls-4" points="199.96 126.16 201.86 127.26 201.86 125.06 199.96 123.96 199.96 126.16"/><polygon class="cls-4" points="204.89 129 206.79 130.1 206.79 127.9 204.89 126.8 204.89 129"/><polygon class="cls-8" points="209.81 131.85 211.72 132.95 211.72 130.75 209.81 129.65 209.81 131.85"/><polygon class="cls-8" points="214.74 134.69 216.65 135.79 216.65 133.59 214.74 132.49 214.74 134.69"/><polygon class="cls-4" points="185.17 123.28 187.08 124.38 187.08 122.18 185.17 121.08 185.17 123.28"/><polygon class="cls-4" points="190.1 126.13 192.01 127.23 192.01 125.03 190.1 123.93 190.1 126.13"/><polygon class="cls-4" points="195.03 128.97 196.94 130.07 196.94 127.87 195.03 126.77 195.03 128.97"/><polygon class="cls-4" points="199.96 131.82 201.86 132.92 201.86 130.72 199.96 129.62 199.96 131.82"/><polygon class="cls-4" points="204.89 134.66 206.79 135.76 206.79 133.56 204.89 132.47 204.89 134.66"/><path class="cls-4" d="M130.64,51a.14.14,0,0,1-.14-.14V39.57a.14.14,0,0,1,.14-.14.13.13,0,0,1,.13.14V50.82A.13.13,0,0,1,130.64,51Z"/><path class="cls-4" d="M144.68,59.07a.14.14,0,0,1-.14-.14V31.4a.14.14,0,0,1,.14-.14.14.14,0,0,1,.14.14V58.93A.14.14,0,0,1,144.68,59.07Z"/><polygon class="cls-4" points="147.01 63.69 142.36 61.01 142.36 63.23 147.01 65.91 147.01 63.69"/><polygon class="cls-4" points="132.72 55.44 128.07 52.76 128.07 54.98 132.72 57.66 132.72 55.44"/><path class="cls-4" d="M158.73,67.18a.14.14,0,0,1-.14-.14V55.79a.14.14,0,1,1,.28,0V67A.14.14,0,0,1,158.73,67.18Z"/><polygon class="cls-4" points="161.05 71.8 156.41 69.12 156.41 71.34 161.05 74.02 161.05 71.8"/><path class="cls-4" d="M172.78,75.24a.14.14,0,0,1-.14-.14V47.57a.14.14,0,0,1,.28,0V75.1A.14.14,0,0,1,172.78,75.24Z"/><polygon class="cls-4" points="175.1 79.91 170.46 77.23 170.46 79.45 175.1 82.13 175.1 79.91"/><path class="cls-9" d="M186.83,83.35a.14.14,0,0,1-.14-.14V72a.14.14,0,0,1,.14-.14A.15.15,0,0,1,187,72V83.21A.14.14,0,0,1,186.83,83.35Z"/><polygon class="cls-4" points="189.15 88.02 184.5 85.34 184.5 87.56 189.15 90.24 189.15 88.02"/><path class="cls-4" d="M200.87,91.46a.14.14,0,0,1-.14-.14V63.79a.14.14,0,0,1,.14-.14.14.14,0,0,1,.14.14V91.32A.14.14,0,0,1,200.87,91.46Z"/><polygon class="cls-4" points="203.2 96.13 198.55 93.45 198.55 95.67 203.2 98.36 203.2 96.13"/><path class="cls-4" d="M214.92,99.57a.14.14,0,0,1-.14-.14V88.18a.14.14,0,1,1,.28,0V99.43A.14.14,0,0,1,214.92,99.57Z"/><polygon class="cls-4" points="217.24 104.24 212.6 101.56 212.6 103.78 217.24 106.47 217.24 104.24"/><path class="cls-10" d="M127.84,42.08a1.13,1.13,0,0,1-.51-.88c0-.33.22-.46.51-.3l2.79,1.61,0,0c1.89,1.09,4.06-.42,6.15-1.87,2.48-1.73,5-3.5,7.86-1.93l.07.05c2.7,1.55,5.05,5.31,7.32,8.94,2.13,3.41,4.34,6.94,6.66,8.28,2.09,1.21,4-2.33,5.87-5.76,2.3-4.21,4.66-8.56,8.18-6.53s5.73,7.7,7.95,13.23c2,4.85,3.79,9.44,6.06,10.75l0,0A31.39,31.39,0,0,0,194,70.53a31.78,31.78,0,0,1,6.91,2.67c2.68,1.45,4.81,4.32,6.86,7.1s4.25,5.75,7.12,7.4l.08,0,5,2.87a1.15,1.15,0,0,1,.51.89c0,.32-.23.45-.51.29l-5-2.87-.09,0c-3.17-1.84-5.46-4.94-7.68-7.93-2-2.72-3.91-5.28-6.26-6.56a31.44,31.44,0,0,0-6.69-2.58,31.84,31.84,0,0,1-7.37-2.92l0,0C184,67.23,182,62.28,179.86,57s-4.22-10.5-7.08-12.16-5.2,2.63-7.26,6.4-4.06,7.48-6.79,5.9-5.06-5.33-7.34-9-4.33-6.92-6.63-8.26l-.07,0c-2.37-1.33-4.78.34-7.11,2s-4.57,3.18-6.9,1.83l-.05,0-2.79-1.6Z"/><path class="cls-8" d="M138.15,74.64c-5.56-3.21-10.08-.61-10.08,5.82s4.52,14.25,10.08,17.46,10.08.61,10.08-5.82S143.72,77.86,138.15,74.64Zm0,20.56a17.09,17.09,0,0,1-7.72-13.38c0-4.92,3.46-6.91,7.72-4.45a17,17,0,0,1,7.72,13.37C145.87,95.66,142.42,97.66,138.15,95.2Z"/><path class="cls-8" d="M167.85,91.79c-5.57-3.22-10.08-.61-10.08,5.82s4.51,14.24,10.08,17.46,10.08.6,10.08-5.82S173.42,95,167.85,91.79Zm0,20.55A17.07,17.07,0,0,1,160.13,99c0-4.92,3.46-6.92,7.72-4.46a17.07,17.07,0,0,1,7.72,13.37C175.57,112.81,172.11,114.8,167.85,112.34Z"/><polygon class="cls-8" points="171.96 40.41 172.61 42.64 173.26 41.17 174.93 42.13 174.93 38.38 170.29 35.7 170.29 39.45 171.96 40.41"/><path class="cls-4" d="M144.53,84.93l1.95-.41a21.77,21.77,0,0,0-8.33-9.88v2.73A16.66,16.66,0,0,1,144.53,84.93Z"/><path class="cls-4" d="M175.57,107.88a5.94,5.94,0,0,1-1.63,4.53l1.86,2.74c1.33-1.2,2.13-3.21,2.13-5.9,0-6.43-4.51-14.25-10.08-17.46v2.72A17.07,17.07,0,0,1,175.57,107.88Z"/></g></g></g></svg>