<svg xmlns="http://www.w3.org/2000/svg" xmlns:xlink="http://www.w3.org/1999/xlink" viewBox="0 0 358.22 227.71"><defs><style>.cls-1{mask:url(#mask);filter:url(#luminosity-noclip-5);}.cls-10,.cls-15,.cls-19,.cls-2,.cls-22,.cls-24,.cls-28,.cls-4,.cls-6,.cls-8{mix-blend-mode:multiply;}.cls-2{fill:url(#ÅÂÁ_Ï_ÌÌ_È_ËÂÌÚ_2);}.cls-3{mask:url(#mask-2);filter:url(#luminosity-noclip-6);}.cls-4{fill:url(#ÅÂÁ_Ï_ÌÌ_È_ËÂÌÚ_2-2);}.cls-5{mask:url(#mask-3);filter:url(#luminosity-noclip-7);}.cls-6{fill:url(#ÅÂÁ_Ï_ÌÌ_È_ËÂÌÚ_2-3);}.cls-7{mask:url(#mask-4);filter:url(#luminosity-noclip-8);}.cls-8{fill:url(#ÅÂÁ_Ï_ÌÌ_È_ËÂÌÚ_2-4);}.cls-9{isolation:isolate;}.cls-10{fill:#bcc0eb;}.cls-11{fill:url(#_01);}.cls-12{fill:#fff;}.cls-13{fill:url(#çÓ_È_Ó·_ÁÂ_ËÂÌÚ_1);}.cls-14{mask:url(#mask-5);}.cls-15{fill:url(#ÅÂÁ_Ï_ÌÌ_È_ËÂÌÚ_10);}.cls-16{fill:url(#_01-2);}.cls-17{fill:url(#new_9);}.cls-18{fill:url(#ÅÂÁ_Ï_ÌÌ_È_ËÂÌÚ_17);}.cls-20{fill:#e6e8f7;}.cls-21{mask:url(#mask-6);}.cls-22{fill:url(#ÅÂÁ_Ï_ÌÌ_È_ËÂÌÚ_10-2);}.cls-23{mask:url(#mask-7);}.cls-24{fill:url(#ÅÂÁ_Ï_ÌÌ_È_ËÂÌÚ_10-3);}.cls-25{fill:#fd486c;}.cls-26{fill:#fda35e;}.cls-27{mask:url(#mask-8);}.cls-28{fill:url(#ÅÂÁ_Ï_ÌÌ_È_ËÂÌÚ_10-4);}.cls-29{filter:url(#luminosity-noclip-4);}.cls-30{filter:url(#luminosity-noclip-3);}.cls-31{filter:url(#luminosity-noclip-2);}.cls-32{filter:url(#luminosity-noclip);}</style><filter id="luminosity-noclip" x="-128.73" y="-9655.34" width="421.08" height="32766" filterUnits="userSpaceOnUse" color-interpolation-filters="sRGB"><feFlood flood-color="#fff" result="bg"/><feBlend in="SourceGraphic" in2="bg"/></filter><mask id="mask" x="-128.73" y="-9655.34" width="421.08" height="32766" maskUnits="userSpaceOnUse"><g class="cls-32"/></mask><linearGradient id="ÅÂÁ_Ï_ÌÌ_È_ËÂÌÚ_2" x1="-3483.09" y1="64.47" x2="-3062.01" y2="64.47" gradientTransform="matrix(-1, 0, 0, 1, -3190.74, 0)" gradientUnits="userSpaceOnUse"><stop offset="0" stop-color="#fff"/><stop offset="1"/></linearGradient><filter id="luminosity-noclip-2" x="196.44" y="-9655.34" width="23.56" height="32766" filterUnits="userSpaceOnUse" color-interpolation-filters="sRGB"><feFlood flood-color="#fff" result="bg"/><feBlend in="SourceGraphic" in2="bg"/></filter><mask id="mask-2" x="196.44" y="-9655.34" width="23.56" height="32766" maskUnits="userSpaceOnUse"><g class="cls-31"/></mask><linearGradient id="ÅÂÁ_Ï_ÌÌ_È_ËÂÌÚ_2-2" x1="-3410.74" y1="109.59" x2="-3387.18" y2="109.59" xlink:href="#ÅÂÁ_Ï_ÌÌ_È_ËÂÌÚ_2"/><filter id="luminosity-noclip-3" x="158.6" y="-9655.34" width="23.56" height="32766" filterUnits="userSpaceOnUse" color-interpolation-filters="sRGB"><feFlood flood-color="#fff" result="bg"/><feBlend in="SourceGraphic" in2="bg"/></filter><mask id="mask-3" x="158.6" y="-9655.34" width="23.56" height="32766" maskUnits="userSpaceOnUse"><g class="cls-30"/></mask><linearGradient id="ÅÂÁ_Ï_ÌÌ_È_ËÂÌÚ_2-3" x1="-3372.89" y1="85.49" x2="-3349.33" y2="85.49" xlink:href="#ÅÂÁ_Ï_ÌÌ_È_ËÂÌÚ_2"/><filter id="luminosity-noclip-4" x="119.95" y="-9655.34" width="23.56" height="32766" filterUnits="userSpaceOnUse" color-interpolation-filters="sRGB"><feFlood flood-color="#fff" result="bg"/><feBlend in="SourceGraphic" in2="bg"/></filter><mask id="mask-4" x="119.95" y="-9655.34" width="23.56" height="32766" maskUnits="userSpaceOnUse"><g class="cls-29"/></mask><linearGradient id="ÅÂÁ_Ï_ÌÌ_È_ËÂÌÚ_2-4" x1="-3334.25" y1="63.84" x2="-3310.69" y2="63.84" xlink:href="#ÅÂÁ_Ï_ÌÌ_È_ËÂÌÚ_2"/><linearGradient id="_01" x1="212.24" y1="149.07" x2="154.65" y2="149.07" gradientUnits="userSpaceOnUse"><stop offset="0" stop-color="#dbdffe"/><stop offset="1" stop-color="#f2f3fb"/></linearGradient><linearGradient id="çÓ_È_Ó·_ÁÂ_ËÂÌÚ_1" y1="103.41" x2="358.22" y2="103.41" gradientUnits="userSpaceOnUse"><stop offset="0" stop-color="#f7f8ff"/><stop offset="1" stop-color="#f2f3fb"/></linearGradient><filter id="luminosity-noclip-5" x="-128.73" y="-67.58" width="421.08" height="264.1" filterUnits="userSpaceOnUse" color-interpolation-filters="sRGB"><feFlood flood-color="#fff" result="bg"/><feBlend in="SourceGraphic" in2="bg"/></filter><mask id="mask-5" x="-128.73" y="-67.58" width="421.08" height="264.1" maskUnits="userSpaceOnUse"><g class="cls-1"><path class="cls-2" d="M-65.68-67.58h28.56L-92.86-35.39a5.49,5.49,0,0,0,0,9.51l385.21,222.4H263.79a17,17,0,0,1-8.51-2.28L-126-25.88a5.49,5.49,0,0,1,0-9.51L-74.18-65.3A17,17,0,0,1-65.68-67.58Z"/></g></mask><linearGradient id="ÅÂÁ_Ï_ÌÌ_È_ËÂÌÚ_10" x1="-3409.43" y1="116.53" x2="-3134.54" y2="116.53" gradientTransform="matrix(-1, 0, 0, 1, -3190.74, 0)" gradientUnits="userSpaceOnUse"><stop offset="0" stop-color="#bcc0eb"/><stop offset="1" stop-color="#bcc0eb"/></linearGradient><linearGradient id="_01-2" x1="-3386.28" y1="111.76" x2="-3426.09" y2="111.76" gradientTransform="matrix(-1, 0, 0, 1, -3190.74, 0)" xlink:href="#_01"/><linearGradient id="new_9" x1="9961.79" y1="7766.22" x2="9961.79" y2="7821.09" gradientTransform="matrix(0.5, -0.87, 0.87, 0.5, -11619.69, 4755.73)" gradientUnits="userSpaceOnUse"><stop offset="0" stop-color="#fd486c"/><stop offset="1" stop-color="#fda35e"/></linearGradient><linearGradient id="ÅÂÁ_Ï_ÌÌ_È_ËÂÌÚ_17" x1="-3329.97" y1="12.32" x2="-3358.84" y2="61.68" gradientTransform="matrix(-1, 0, 0, 1, -3190.74, 0)" gradientUnits="userSpaceOnUse"><stop offset="0" stop-color="#fd486c"/><stop offset="0.13" stop-color="#fd8862"/><stop offset="0.2" stop-color="#fda35e"/><stop offset="0.33" stop-color="#febc8a"/><stop offset="0.48" stop-color="#fed4b4"/><stop offset="0.62" stop-color="#fee7d4"/><stop offset="0.76" stop-color="#fff4ec"/><stop offset="0.89" stop-color="#fffcfa"/><stop offset="1" stop-color="#fff"/></linearGradient><filter id="luminosity-noclip-6" x="196.44" y="103.65" width="23.56" height="11.87" filterUnits="userSpaceOnUse" color-interpolation-filters="sRGB"><feFlood flood-color="#fff" result="bg"/><feBlend in="SourceGraphic" in2="bg"/></filter><mask id="mask-6" x="196.44" y="103.65" width="23.56" height="11.87" maskUnits="userSpaceOnUse"><g class="cls-3"><polygon class="cls-4" points="206.73 103.65 220.01 103.65 220.01 115.52 206.73 115.52 196.44 109.59 206.73 103.65"/></g></mask><linearGradient id="ÅÂÁ_Ï_ÌÌ_È_ËÂÌÚ_10-2" x1="-3410.74" y1="109.59" x2="-3387.18" y2="109.59" xlink:href="#ÅÂÁ_Ï_ÌÌ_È_ËÂÌÚ_10"/><filter id="luminosity-noclip-7" x="158.6" y="79.55" width="23.56" height="11.87" filterUnits="userSpaceOnUse" color-interpolation-filters="sRGB"><feFlood flood-color="#fff" result="bg"/><feBlend in="SourceGraphic" in2="bg"/></filter><mask id="mask-7" x="158.6" y="79.55" width="23.56" height="11.87" maskUnits="userSpaceOnUse"><g class="cls-5"><polygon class="cls-6" points="168.88 79.55 182.16 79.55 182.16 91.42 168.88 91.42 158.59 85.49 168.88 79.55"/></g></mask><linearGradient id="ÅÂÁ_Ï_ÌÌ_È_ËÂÌÚ_10-3" x1="-3372.89" y1="85.49" x2="-3349.33" y2="85.49" xlink:href="#ÅÂÁ_Ï_ÌÌ_È_ËÂÌÚ_10"/><filter id="luminosity-noclip-8" x="119.95" y="57.91" width="23.56" height="11.87" filterUnits="userSpaceOnUse" color-interpolation-filters="sRGB"><feFlood flood-color="#fff" result="bg"/><feBlend in="SourceGraphic" in2="bg"/></filter><mask id="mask-8" x="119.95" y="57.91" width="23.56" height="11.87" maskUnits="userSpaceOnUse"><g class="cls-7"><polygon class="cls-8" points="130.24 57.91 143.51 57.91 143.51 69.78 130.24 69.78 119.95 63.84 130.24 57.91"/></g></mask><linearGradient id="ÅÂÁ_Ï_ÌÌ_È_ËÂÌÚ_10-4" x1="-3334.25" y1="63.84" x2="-3310.69" y2="63.84" xlink:href="#ÅÂÁ_Ï_ÌÌ_È_ËÂÌÚ_10"/></defs><title>Our-Services_Servicing</title><g class="cls-9"><g id="Layer_2" data-name="Layer 2"><g id="Layer_1-2" data-name="Layer 1"><path class="cls-10" d="M358.2,124.3c-.28-4.31-3.55-8.8-9.68-12.33L200.31,26.48c-11.73-6.77-29.47-7.49-39.63-1.62L6.85,113.76C2,116.56-.24,120.36,0,124.3c.28,4.32,3.55,8.8,9.68,12.34l148.21,85.48c11.73,6.77,29.48,7.5,39.63,1.63l153.84-88.9C356.22,132,358.46,128.24,358.2,124.3Z"/><path class="cls-11" d="M358.2,121.1h0V106.4l-60.15,29.22L200.31,79.23c-11.73-6.76-29.47-7.49-39.63-1.62L60.23,135.66,0,106.4V120a9.91,9.91,0,0,0,0,1.09c.28,4.32,3.55,8.8,9.68,12.34l148.21,85.48a45.83,45.83,0,0,0,21.21,5.58h0c6.89.17,13.53-1.13,18.42-4l153.84-88.9C356.22,128.84,358.46,125,358.2,121.1Z"/><path class="cls-12" d="M358.2,106.4c-.28-4.32-3.55-8.8-9.68-12.33L200.31,8.58C188.58,1.81,170.84,1.08,160.68,7L6.85,95.85C2,98.66-.24,102.46,0,106.4c.28,4.31,3.55,8.8,9.68,12.33l148.21,85.49c11.73,6.77,29.48,7.49,39.63,1.62l153.84-88.9C356.22,114.14,358.46,110.34,358.2,106.4Z"/><path class="cls-13" d="M358.2,103.41c-.28-4.31-3.55-8.79-9.68-12.33L200.31,5.59C188.58-1.17,170.84-1.9,160.68,4L6.85,92.87C2,95.67-.24,99.47,0,103.41c.28,4.32,3.55,8.8,9.68,12.34l148.21,85.48c11.73,6.77,29.48,7.5,39.63,1.63L351.38,114C356.22,111.16,358.46,107.36,358.2,103.41Z"/><g class="cls-14"><path class="cls-15" d="M86.78,86.34s1.93-4.31,1.49-6.76l130.42,73.89H190.12a17,17,0,0,1-8.5-2.28l-101.43-58Z"/></g><path class="cls-16" d="M230.3,141.68l49.83-32.09,0,8.42a8.13,8.13,0,0,1-4.06,7L230.3,151.47a16.84,16.84,0,0,1-16.86,0L88.27,79.58V69.79l125.17,71.89A16.87,16.87,0,0,0,230.3,141.68Z"/><path class="cls-17" d="M151.42,33.35l0-16.18h0v-.34a.49.49,0,0,1,0-.12c0-.07,0-.14,0-.21s0-.1,0-.15,0-.11,0-.17l0-.15,0-.15c0-.06,0-.11,0-.16l0-.13-.06-.16,0-.11-.07-.16a.69.69,0,0,0,0-.1c0-.05,0-.1-.07-.16a.2.2,0,0,1,0-.08l-.09-.15-.05-.07-.1-.15,0-.06-.12-.15,0,0-.14-.15,0,0-.15-.14,0,0-.17-.13h0l-.19-.13h0l-.2-.11h0c-1.29-.64-3.11-.45-5.14.72L95.33,42.47c-3.88,2.24-7,7.2-7,11.08l0,16.24Z"/><path class="cls-18" d="M131.32,21.74l146.4,84a4.87,4.87,0,0,1,0,8.43L230.3,141.55a16.87,16.87,0,0,1-16.86,0L88.27,69.79l0-16.24c0-3.88,3.16-8.84,7-11.08Z"/><g class="cls-19"><path class="cls-20" d="M168.48,111a.48.48,0,0,0,.26-.07l53-30.62a.53.53,0,1,0-.53-.91l-53,30.62a.52.52,0,0,0-.19.72A.53.53,0,0,0,168.48,111Z"/><path class="cls-20" d="M148.61,99.51a.48.48,0,0,0,.26-.07l53-30.62a.53.53,0,1,0-.53-.91l-53,30.61a.53.53,0,0,0,.27,1Z"/><path class="cls-20" d="M188.35,122.45a.48.48,0,0,0,.26-.07l53-30.61a.53.53,0,1,0-.52-.92l-53,30.62a.52.52,0,0,0,.26,1Z"/><path class="cls-20" d="M208.22,133.93a.68.68,0,0,0,.27-.07l53-30.62a.53.53,0,0,0,.19-.72.53.53,0,0,0-.72-.19l-53,30.61a.53.53,0,0,0-.2.72A.54.54,0,0,0,208.22,133.93Z"/><path class="cls-20" d="M128.73,88A.56.56,0,0,0,129,88l53-30.61a.53.53,0,0,0-.53-.92l-53,30.62a.53.53,0,0,0-.19.72A.51.51,0,0,0,128.73,88Z"/><path class="cls-20" d="M108.86,76.56a.54.54,0,0,0,.27-.07l53-30.62a.53.53,0,1,0-.53-.91l-53,30.62a.52.52,0,0,0,.26,1Z"/><path class="cls-20" d="M89,65.09a.48.48,0,0,0,.26-.07l53-30.62a.52.52,0,1,0-.52-.91l-53,30.61a.54.54,0,0,0-.2.73A.53.53,0,0,0,89,65.09Z"/></g><g class="cls-21"><polygon class="cls-22" points="206.73 103.65 220.01 103.65 220.01 115.52 206.73 115.52 196.44 109.59 206.73 103.65"/></g><g class="cls-23"><polygon class="cls-24" points="168.88 79.55 182.16 79.55 182.16 91.42 168.88 91.42 158.59 85.49 168.88 79.55"/></g><polygon class="cls-25" points="192.44 73.68 192.44 85.49 182.16 91.42 182.16 79.62 192.44 73.68"/><polygon class="cls-26" points="171.87 73.68 171.87 85.49 182.16 91.42 182.16 79.62 171.87 73.68"/><polygon class="cls-12" points="192.44 73.68 182.16 67.74 171.87 73.68 182.16 79.62 192.44 73.68"/><g class="cls-27"><polygon class="cls-28" points="130.24 57.91 143.51 57.91 143.51 69.78 130.24 69.78 119.95 63.84 130.24 57.91"/></g><polygon class="cls-25" points="153.8 52.03 153.8 63.84 143.51 69.78 143.51 57.97 153.8 52.03"/><polygon class="cls-26" points="133.23 52.03 133.23 63.84 143.51 69.78 143.51 57.97 133.23 52.03"/><polygon class="cls-12" points="153.8 52.03 143.51 46.1 133.23 52.03 143.51 57.97 153.8 52.03"/><polygon class="cls-25" points="230.29 97.78 230.29 109.59 220.01 115.52 220.01 103.72 230.29 97.78"/><polygon class="cls-26" points="209.72 97.78 209.72 109.59 220.01 115.52 220.01 103.72 209.72 97.78"/><polygon class="cls-12" points="230.29 97.78 220.01 91.84 209.72 97.78 220.01 103.72 230.29 97.78"/></g></g></g></svg>